<?xml version="1.0" encoding="utf-8"?>
<!-- Generator: Adobe Illustrator 24.0.0, SVG Export Plug-In . SVG Version: 6.00 Build 0)  -->
<svg version="1.1" id="Layer_1" xmlns="http://www.w3.org/2000/svg" xmlns:xlink="http://www.w3.org/1999/xlink" x="0px" y="0px"
	 viewBox="0 0 338.3 15.6" style="enable-background:new 0 0 338.3 15.6;" xml:space="preserve">
<style type="text/css">
	.st0{fill:#FFFFFF;}
	.st1{fill:#999999;}
	.st2{fill:#DE3C4B;}
	.st3{fill:#435058;}
	.st4{fill:#62BBC1;}
	.st5{fill:#313638;}
	.st6{fill:#BCD979;}
	.st7{fill:#E5446D;}
	.st8{fill:#39A0ED;}
	.st9{fill:#F1DB4B;}
	.st10{fill:#36F1CD;}
	.st11{fill:#F0F2EF;}
</style>
<g>
	<circle class="st0" cx="-2599" cy="159.6" r="48"/>
	<path d="M-2599,127.1c17.9,0,32.5,14.6,32.5,32.5s-14.6,32.5-32.5,32.5c-17.9,0-32.5-14.6-32.5-32.5S-2616.9,127.1-2599,127.1
		 M-2599,96.1c-35.1,0-63.5,28.4-63.5,63.5s28.4,63.5,63.5,63.5s63.5-28.4,63.5-63.5S-2563.9,96.1-2599,96.1L-2599,96.1z"/>
</g>
<g>
	<circle class="st0" cx="-2590" cy="270.6" r="57"/>
	<path d="M-2590,229.1c22.9,0,41.5,18.6,41.5,41.5c0,22.9-18.6,41.5-41.5,41.5s-41.5-18.6-41.5-41.5
		C-2631.5,247.7-2612.9,229.1-2590,229.1 M-2590,198.1c-40,0-72.5,32.5-72.5,72.5s32.5,72.5,72.5,72.5s72.5-32.5,72.5-72.5
		S-2550,198.1-2590,198.1L-2590,198.1z"/>
</g>
<g>
	<path class="st0" d="M-2647,255.6"/>
	<polygon points="-2631.5,157.1 -2662.5,157.1 -2662.5,271.1 -2631.5,271.1 -2631.5,157.1 	"/>
</g>
<g>
	<path d="M-2739.3,412.8c-34.2,0-62.1,27.1-63.4,61h-0.1v114h0c0.3,39.8,32.6,72,72.5,72c40,0,72.5-32.5,72.5-72.5
		c0-27.8-15.7-52-38.7-64.1c12.7-11.6,20.7-28.3,20.7-46.9C-2675.8,441.2-2704.3,412.8-2739.3,412.8L-2739.3,412.8z"/>
</g>
<g>
	<circle class="st0" cx="-2542" cy="476.3" r="48"/>
	<path d="M-2542,443.8c17.9,0,32.5,14.6,32.5,32.5s-14.6,32.5-32.5,32.5c-17.9,0-32.5-14.6-32.5-32.5S-2559.9,443.8-2542,443.8
		 M-2542,412.8c-35.1,0-63.5,28.4-63.5,63.5s28.4,63.5,63.5,63.5s63.5-28.4,63.5-63.5S-2506.9,412.8-2542,412.8L-2542,412.8z"/>
</g>
<g>
	<circle class="st0" cx="-2533" cy="587.3" r="57"/>
	<path d="M-2533,545.8c22.9,0,41.5,18.6,41.5,41.5s-18.6,41.5-41.5,41.5c-22.9,0-41.5-18.6-41.5-41.5S-2555.9,545.8-2533,545.8
		 M-2533,514.8c-40,0-72.5,32.5-72.5,72.5s32.5,72.5,72.5,72.5s72.5-32.5,72.5-72.5S-2493,514.8-2533,514.8L-2533,514.8z"/>
</g>
<g>
	<path class="st0" d="M-2590,572.3"/>
	<polygon points="-2574.5,473.8 -2605.5,473.8 -2605.5,587.8 -2574.5,587.8 -2574.5,473.8 	"/>
</g>
<g>
	<path d="M-2332.7,505.3c-16.6,0-32,5.4-44.5,14.5V472c0-19,15.6-34.4,34.6-33.2c17,1.1,30.4,15.2,30.4,32.4
		c0,10.3-4.8,19.5-12.3,25.4c11.7,1.2,22.6,4.7,32.4,10.2c7.3-10.8,11.4-24,10.9-38.1c-1.3-34-29.8-61.2-63.8-61
		c-34.1,0.2-61.7,27.2-63,61l-0.1,112c0,0,0,0,0,0c0,0,0,0,0,0l0,1.9h0c1,40.8,34.4,73.6,75.4,73.6c41.7,0,75.5-33.8,75.5-75.5
		S-2291,505.3-2332.7,505.3z M-2332.7,625.3c-24.5,0-44.5-20-44.5-44.5s20-44.5,44.5-44.5s44.5,20,44.5,44.5
		S-2308.2,625.3-2332.7,625.3z"/>
</g>
<path d="M-1946.8,490.8v35c26.1,0,47.4,21.3,47.4,47.4s-21.2,47.4-47.4,47.4c-25.7,0-46.2-20.6-46.8-46.2l0,0v-94.9
	c0-13.5,7.4-26.2,19.5-32.2c5.5-2.8,11.9-4.1,18.5-3.7c17.7,1.2,32.1,15.5,33.5,33.2c0.3,3.3,0.1,6.5-0.5,9.5
	c11.7,3.3,22.5,8.8,31.8,16.2c2.9-8.4,4.2-17.5,3.7-27c-2-36.1-31.4-65.1-67.4-66.9c-40.8-2-74.5,30.6-74.5,71v94.7l0,0
	c0.6,44.9,37.3,81.2,82.3,81.2c45.4,0,82.3-36.9,82.3-82.3S-1901.4,490.8-1946.8,490.8z"/>
<g>
	<path d="M-2129.4,505.3c-13.1,0-25.4,3.3-36.1,9.2v40.3c8.1-11.2,21.3-18.5,36.1-18.5c24.5,0,44.5,20,44.5,44.5s-20,44.5-44.5,44.5
		c-23.9,0-43.4-18.9-44.4-42.5h0l0-0.2c0-0.6,0-1.2,0-1.8c0-0.6,0-1.2,0-1.7l0-59.2c0,0,0,0,0,0V472c0-19,15.6-34.4,34.6-33.2
		c17,1.1,30.4,15.2,30.4,32.4c0,10.3-4.8,19.5-12.3,25.4c11.7,1.2,22.6,4.7,32.4,10.2c7.3-10.8,11.4-24,10.9-38.1
		c-1.3-34-29.8-61.2-63.8-61c-34.1,0.2-61.7,27.2-63,61l-0.1,112c0,0,0,0,0,0c0,0,0,0,0,0l0,1.9h0c1,40.8,34.4,73.6,75.4,73.6
		c41.7,0,75.5-33.8,75.5-75.5S-2087.7,505.3-2129.4,505.3z"/>
</g>
<path d="M-2051.5,164.5c0,0-0.1,0.1-0.1,0.1l0,0l-57.4,37.2l48,74.2l57.4-37.2l0,0c0,0,0.1-0.1,0.1-0.1
	c20.5-13.3,26.3-40.6,13.1-61.1C-2003.6,157.1-2031,151.3-2051.5,164.5z"/>
<path class="st1" d="M-2011.5,202.6c-0.1,0-0.1,0.1-0.2,0.1l0,0l-68.3,44.2l57,88.1l68.3-44.2l0,0c0.1,0,0.1-0.1,0.2-0.1
	c24.3-15.7,31.3-48.2,15.6-72.6C-1954.7,193.8-1987.2,186.8-2011.5,202.6z"/>
<path d="M-2304.7,184c-12.2,0-23.8,3-33.9,8.4v37.1l10.1-7.1c7-4.9,15.2-7.5,23.7-7.5c22.9,0,41.5,18.6,41.5,41.5
	c0,22.9-18.6,41.5-41.5,41.5c-22.7,0-41.3-18.5-41.5-41.2l0-1.7v-0.4v-19.9v-37.8V182v-39h-31v114h0c0.3,39.8,32.6,72,72.5,72
	c40,0,72.5-32.5,72.5-72.5S-2264.6,184-2304.7,184z"/>
<text transform="matrix(1 0 0 1 -950.5103 347.8847)"><tspan x="0" y="0" class="st2" style="font-family:'CourierNewPS-BoldMT'; font-size:15.7611px;">#Bachelot</tspan><tspan x="85.1" y="0" class="st3" style="font-family:'CourierNewPS-BoldMT'; font-size:15.7611px; letter-spacing:-4;">:</tspan><tspan x="90.2" y="0" class="st3" style="font-family:'CourierNewPS-BoldMT'; font-size:15.7611px;">:before</tspan><tspan x="156.4" y="0" class="st3" style="font-family:'CourierNewPS-BoldMT'; font-size:15.7611px; letter-spacing:-4;"> </tspan><tspan x="161.1" y="0" class="st3" style="font-family:'CourierNewPS-BoldMT'; font-size:15.7611px;">{</tspan><tspan x="170.6" y="0" class="st4" style="font-family:'CourierNewPS-BoldMT'; font-size:15.7611px;">content</tspan><tspan x="236.8" y="0" class="st5" style="font-family:'CourierNewPS-BoldMT'; font-size:15.7611px;">:</tspan><tspan x="246.2" y="0" class="st5" style="font-family:'CourierNewPS-BoldMT'; font-size:15.7611px; letter-spacing:-4;"> </tspan><tspan x="251" y="0" class="st6" style="font-family:'CourierNewPS-BoldMT'; font-size:15.7611px;">“Clark</tspan><tspan x="307.7" y="0" class="st6" style="font-family:'CourierNewPS-BoldMT'; font-size:15.7611px; letter-spacing:-4;"> </tspan><tspan x="312.4" y="0" class="st6" style="font-family:'CourierNewPS-BoldMT'; font-size:15.7611px;">”</tspan><tspan x="321.9" y="0" class="st3" style="font-family:'CourierNewPS-BoldMT'; font-size:15.7611px;">;}</tspan></text>
<g>
	<path class="st2" d="M-943.5,299.5h0.4c0.4,0,0.7,0.1,0.8,0.2c0.2,0.1,0.2,0.3,0.2,0.6c0,0.2-0.1,0.4-0.2,0.6
		c-0.2,0.1-0.4,0.2-0.8,0.2h-0.5l-0.1,1.7h0.3c0.4,0,0.7,0.1,0.8,0.2c0.2,0.1,0.2,0.3,0.2,0.6c0,0.2-0.1,0.4-0.2,0.6
		c-0.2,0.1-0.4,0.2-0.8,0.2h-0.4l-0.2,2.7c0,0,0,0.2-0.1,0.5c-0.1,0.1-0.1,0.2-0.3,0.3c-0.1,0.1-0.3,0.1-0.4,0.1
		c-0.2,0-0.4-0.1-0.5-0.2c-0.2-0.2-0.2-0.4-0.2-0.6c0,0,0-0.1,0-0.3l0.2-2.6h-1.2l-0.2,2.7c0,0.3,0,0.4-0.1,0.5
		c-0.1,0.2-0.2,0.3-0.3,0.4c-0.1,0.1-0.3,0.1-0.5,0.1c-0.2,0-0.4-0.1-0.6-0.2c-0.2-0.2-0.2-0.4-0.2-0.6c0-0.1,0-0.2,0-0.3l0.2-2.6
		h-0.4c-0.4,0-0.7-0.1-0.8-0.2c-0.2-0.1-0.2-0.3-0.2-0.6c0-0.2,0.1-0.4,0.2-0.6c0.2-0.1,0.4-0.2,0.8-0.2h0.5l0.1-1.7h-0.3
		c-0.4,0-0.7-0.1-0.8-0.2c-0.2-0.1-0.2-0.3-0.2-0.6c0-0.2,0.1-0.4,0.2-0.6c0.2-0.1,0.4-0.2,0.8-0.2h0.4l0.2-2.7c0-0.3,0-0.4,0.1-0.5
		c0.1-0.1,0.2-0.3,0.3-0.4c0.1-0.1,0.3-0.1,0.5-0.1c0.2,0,0.4,0.1,0.6,0.2c0.2,0.2,0.2,0.4,0.2,0.6c0,0.1,0,0.2,0,0.3l-0.2,2.6h1.2
		l0.2-2.7c0-0.4,0.1-0.6,0.2-0.8s0.3-0.2,0.6-0.2c0.2,0,0.4,0.1,0.6,0.2c0.2,0.2,0.2,0.3,0.2,0.6c0,0.1,0,0.1,0,0.1l0,0.2
		L-943.5,299.5z M-945.1,301.1h-1.2l-0.1,1.7h1.2L-945.1,301.1z"/>
	<path class="st2" d="M-939.5,305v-6.2h-0.2c-0.4,0-0.6-0.1-0.8-0.2c-0.2-0.1-0.2-0.3-0.2-0.6c0-0.2,0.1-0.4,0.2-0.6
		c0.2-0.1,0.4-0.2,0.8-0.2h4c0.9,0,1.7,0.3,2.3,0.8c0.6,0.5,0.9,1.2,0.9,1.9c0,0.3-0.1,0.7-0.2,1c-0.1,0.3-0.3,0.6-0.6,0.8
		c0.5,0.3,0.9,0.6,1.1,1c0.2,0.4,0.4,0.8,0.4,1.4c0,0.4-0.1,0.8-0.3,1.1c-0.1,0.3-0.3,0.5-0.5,0.6c-0.3,0.2-0.6,0.4-1,0.5
		c-0.4,0.1-0.9,0.2-1.4,0.2h-4.6c-0.4,0-0.6-0.1-0.8-0.2c-0.2-0.1-0.2-0.3-0.2-0.6c0-0.2,0.1-0.4,0.2-0.6c0.2-0.1,0.4-0.2,0.8-0.2
		H-939.5z M-938,301.1h1.7c0.6,0,1.1-0.2,1.5-0.5c0.3-0.2,0.4-0.5,0.4-0.8c0-0.3-0.1-0.5-0.4-0.7c-0.3-0.2-0.7-0.3-1.2-0.3h-2.1
		V301.1z M-938,305h2.7c0.6,0,1.1-0.1,1.4-0.3c0.2-0.1,0.3-0.3,0.3-0.6c0-0.3-0.2-0.6-0.6-0.9c-0.4-0.3-1-0.5-1.7-0.5h-2.1V305z"/>
	<path class="st2" d="M-925.4,306.6v-0.4c-0.4,0.2-0.8,0.4-1.3,0.5c-0.5,0.1-0.9,0.2-1.3,0.2c-0.8,0-1.5-0.2-2.1-0.7
		c-0.5-0.4-0.8-0.9-0.8-1.5c0-0.7,0.3-1.3,1-1.8c0.7-0.6,1.6-0.9,2.8-0.9c0.5,0,1,0.1,1.7,0.2v-0.4c0-0.2-0.1-0.4-0.3-0.6
		c-0.2-0.1-0.6-0.2-1.2-0.2c-0.5,0-1.1,0.1-1.8,0.3c-0.3,0.1-0.5,0.1-0.6,0.1c-0.2,0-0.4-0.1-0.5-0.2s-0.2-0.3-0.2-0.6
		c0-0.1,0-0.2,0.1-0.3c0.1-0.1,0.1-0.2,0.2-0.2c0.1-0.1,0.3-0.1,0.6-0.2c0.4-0.1,0.8-0.2,1.2-0.3c0.4-0.1,0.8-0.1,1.1-0.1
		c1,0,1.7,0.2,2.3,0.6c0.5,0.4,0.8,1,0.8,1.7v3.2h0.3c0.4,0,0.7,0.1,0.8,0.2c0.2,0.1,0.2,0.3,0.2,0.6c0,0.2-0.1,0.4-0.2,0.6
		c-0.2,0.1-0.4,0.2-0.8,0.2H-925.4z M-925.4,303.8c-0.6-0.1-1.2-0.2-1.7-0.2c-0.6,0-1.2,0.2-1.7,0.5c-0.3,0.2-0.4,0.4-0.4,0.6
		c0,0.1,0.1,0.3,0.2,0.4c0.3,0.2,0.6,0.3,1.1,0.3c0.4,0,0.8-0.1,1.3-0.2c0.5-0.1,0.9-0.4,1.3-0.6V303.8z"/>
	<path class="st2" d="M-914.9,299.9c0.2-0.2,0.4-0.3,0.6-0.3c0.2,0,0.4,0.1,0.6,0.2c0.1,0.2,0.2,0.4,0.2,0.8v1
		c0,0.4-0.1,0.6-0.2,0.8c-0.1,0.2-0.3,0.2-0.6,0.2c-0.2,0-0.4-0.1-0.5-0.2c-0.1-0.1-0.2-0.3-0.3-0.6s-0.2-0.5-0.4-0.6
		c-0.4-0.2-0.9-0.4-1.6-0.4c-0.7,0-1.3,0.2-1.8,0.7c-0.4,0.4-0.7,1-0.7,1.7c0,0.6,0.2,1.1,0.6,1.5c0.4,0.4,1.1,0.5,2.1,0.5
		c0.7,0,1.2-0.1,1.6-0.2c0.2-0.1,0.5-0.2,0.7-0.4c0.2-0.2,0.4-0.3,0.6-0.3c0.2,0,0.4,0.1,0.6,0.2c0.2,0.2,0.2,0.3,0.2,0.6
		c0,0.3-0.2,0.7-0.7,1c-0.7,0.5-1.7,0.7-3.1,0.7c-1.2,0-2.2-0.3-2.9-0.8c-0.9-0.7-1.4-1.6-1.4-2.8c0-1.1,0.4-2.1,1.1-2.8
		s1.7-1.1,2.9-1.1c0.4,0,0.8,0,1.2,0.1C-915.6,299.6-915.3,299.7-914.9,299.9z"/>
	<path class="st2" d="M-909.6,296.6v3.4c0.3-0.2,0.7-0.3,1-0.4c0.3-0.1,0.7-0.1,1-0.1c0.5,0,1,0.1,1.5,0.3s0.8,0.5,1.1,0.9
		c0.3,0.4,0.4,0.9,0.4,1.5v3c0.4,0,0.7,0,0.8,0.1c0.2,0.2,0.4,0.4,0.4,0.7c0,0.2-0.1,0.4-0.2,0.6c-0.2,0.1-0.4,0.2-0.8,0.2h-1.8
		c-0.4,0-0.6-0.1-0.8-0.2c-0.2-0.1-0.2-0.3-0.2-0.6c0-0.3,0.1-0.5,0.4-0.7c0.1-0.1,0.4-0.1,0.8-0.1v-2.9c0-0.4-0.1-0.7-0.3-0.9
		c-0.2-0.2-0.6-0.3-1.1-0.3c-0.3,0-0.7,0.1-0.9,0.2c-0.3,0.1-0.6,0.4-1.1,0.9v3c0.4,0,0.7,0,0.8,0.1c0.3,0.2,0.4,0.4,0.4,0.7
		c0,0.2-0.1,0.4-0.2,0.6c-0.2,0.1-0.4,0.2-0.8,0.2h-1.8c-0.4,0-0.7-0.1-0.8-0.2c-0.2-0.1-0.2-0.3-0.2-0.6c0-0.3,0.1-0.5,0.4-0.7
		c0.1-0.1,0.4-0.1,0.8-0.1v-6.8h-0.3c-0.4,0-0.7-0.1-0.8-0.2c-0.2-0.1-0.2-0.3-0.2-0.6c0-0.2,0.1-0.4,0.2-0.6
		c0.2-0.1,0.4-0.2,0.8-0.2H-909.6z"/>
	<path class="st2" d="M-894.5,303.9h-6.5c0.2,0.4,0.5,0.7,0.9,1s1,0.4,1.7,0.4c0.6,0,1.4-0.1,2.3-0.4c0.4-0.1,0.7-0.2,0.8-0.2
		c0.2,0,0.4,0.1,0.5,0.2s0.2,0.3,0.2,0.6c0,0.2-0.1,0.4-0.2,0.5c-0.2,0.2-0.7,0.4-1.5,0.5c-0.8,0.2-1.6,0.3-2.3,0.3
		c-1.3,0-2.3-0.4-3-1.1c-0.8-0.7-1.1-1.6-1.1-2.6c0-1.1,0.4-2,1.2-2.7s1.8-1,2.8-1c0.6,0,1.2,0.1,1.8,0.3s0.9,0.5,1.2,0.7
		c0.4,0.4,0.7,0.8,0.9,1.4c0.2,0.4,0.2,0.8,0.2,1.4V303.9z M-896.3,302.3c-0.2-0.5-0.6-0.8-0.9-1s-0.9-0.3-1.4-0.3
		c-0.5,0-1,0.1-1.4,0.3s-0.7,0.6-1,1H-896.3z"/>
	<path class="st2" d="M-888.2,296.6v8.4h1.9c0.4,0,0.7,0.1,0.8,0.2c0.2,0.1,0.2,0.3,0.2,0.6c0,0.2-0.1,0.4-0.2,0.6
		c-0.2,0.1-0.4,0.2-0.8,0.2h-5.4c-0.4,0-0.7-0.1-0.8-0.2c-0.2-0.1-0.2-0.3-0.2-0.6c0-0.2,0.1-0.4,0.2-0.6c0.2-0.1,0.4-0.2,0.8-0.2
		h1.9v-6.8h-1.3c-0.4,0-0.6-0.1-0.8-0.2c-0.2-0.1-0.2-0.3-0.2-0.6c0-0.2,0.1-0.4,0.2-0.6c0.2-0.1,0.4-0.2,0.8-0.2H-888.2z"/>
	<path class="st2" d="M-875.5,303.2c0,0.6-0.2,1.2-0.5,1.8s-0.8,1-1.5,1.4s-1.4,0.5-2.1,0.5c-0.7,0-1.4-0.2-2.1-0.5
		c-0.7-0.3-1.2-0.8-1.5-1.4c-0.3-0.6-0.5-1.2-0.5-1.8c0-0.6,0.2-1.3,0.5-1.9c0.3-0.6,0.8-1.1,1.5-1.4c0.7-0.3,1.3-0.5,2.1-0.5
		c0.7,0,1.4,0.2,2.1,0.5c0.7,0.4,1.2,0.8,1.5,1.4C-875.6,302-875.5,302.6-875.5,303.2z M-877.1,303.2c0-0.5-0.2-1-0.5-1.4
		c-0.5-0.6-1.2-0.9-2-0.9c-0.7,0-1.3,0.2-1.8,0.7c-0.5,0.5-0.7,1-0.7,1.6c0,0.5,0.2,1,0.7,1.4s1.1,0.6,1.8,0.6
		c0.7,0,1.3-0.2,1.8-0.6C-877.3,304.2-877.1,303.7-877.1,303.2z"/>
	<path class="st2" d="M-870.5,301.2v3.2c0,0.3,0.1,0.6,0.2,0.7c0.2,0.2,0.6,0.3,1.2,0.3c0.8,0,1.5-0.2,2.2-0.5
		c0.3-0.1,0.5-0.2,0.6-0.2c0.2,0,0.4,0.1,0.5,0.2s0.2,0.3,0.2,0.6c0,0.2-0.1,0.4-0.2,0.5c-0.3,0.2-0.7,0.5-1.5,0.7s-1.4,0.3-1.9,0.3
		c-1,0-1.7-0.2-2.2-0.6c-0.5-0.4-0.7-0.9-0.7-1.6v-3.5h-0.6c-0.4,0-0.7-0.1-0.8-0.2c-0.2-0.1-0.2-0.3-0.2-0.6c0-0.2,0.1-0.4,0.2-0.6
		c0.2-0.1,0.4-0.2,0.8-0.2h0.6v-1.4c0-0.4,0.1-0.7,0.2-0.8c0.1-0.2,0.3-0.2,0.6-0.2c0.2,0,0.4,0.1,0.6,0.2s0.2,0.4,0.2,0.8v1.4h2.9
		c0.4,0,0.7,0.1,0.8,0.2c0.2,0.1,0.2,0.3,0.2,0.6c0,0.2-0.1,0.4-0.2,0.6c-0.2,0.1-0.4,0.2-0.8,0.2H-870.5z"/>
	<path class="st3" d="M-859.5,300.6c0,0.3-0.1,0.5-0.3,0.7s-0.5,0.3-0.9,0.3c-0.4,0-0.7-0.1-0.9-0.3s-0.3-0.4-0.3-0.7
		c0-0.3,0.1-0.5,0.3-0.7c0.2-0.2,0.5-0.3,0.9-0.3c0.4,0,0.7,0.1,0.9,0.3C-859.6,300.1-859.5,300.4-859.5,300.6z M-859.5,305.8
		c0,0.3-0.1,0.5-0.3,0.7c-0.2,0.2-0.5,0.3-0.9,0.3c-0.4,0-0.7-0.1-0.9-0.3c-0.2-0.2-0.3-0.4-0.3-0.7s0.1-0.5,0.3-0.7
		c0.2-0.2,0.5-0.3,0.9-0.3c0.4,0,0.7,0.1,0.9,0.3C-859.6,305.3-859.5,305.5-859.5,305.8z"/>
	<path class="st3" d="M-854.4,300.6c0,0.3-0.1,0.5-0.3,0.7s-0.5,0.3-0.9,0.3c-0.4,0-0.7-0.1-0.9-0.3s-0.3-0.4-0.3-0.7
		c0-0.3,0.1-0.5,0.3-0.7c0.2-0.2,0.5-0.3,0.9-0.3c0.4,0,0.7,0.1,0.9,0.3C-854.5,300.1-854.4,300.4-854.4,300.6z M-854.4,305.8
		c0,0.3-0.1,0.5-0.3,0.7c-0.2,0.2-0.5,0.3-0.9,0.3c-0.4,0-0.7-0.1-0.9-0.3c-0.2-0.2-0.3-0.4-0.3-0.7s0.1-0.5,0.3-0.7
		c0.2-0.2,0.5-0.3,0.9-0.3c0.4,0,0.7,0.1,0.9,0.3C-854.5,305.3-854.4,305.5-854.4,305.8z"/>
	<path class="st3" d="M-848.1,296.6v3.5c0.4-0.3,0.8-0.4,1.2-0.6c0.4-0.1,0.8-0.2,1.2-0.2c1.1,0,2,0.4,2.8,1.1
		c0.8,0.8,1.1,1.7,1.1,2.7c0,1-0.4,1.9-1.1,2.6c-0.7,0.7-1.7,1-2.9,1c-0.4,0-0.8-0.1-1.2-0.2s-0.8-0.3-1.1-0.5v0.4h-1.8
		c-0.4,0-0.7-0.1-0.8-0.2c-0.2-0.1-0.2-0.3-0.2-0.6c0-0.2,0.1-0.4,0.2-0.6c0.2-0.1,0.4-0.2,0.8-0.2h0.3v-6.8h-0.3
		c-0.4,0-0.7-0.1-0.8-0.2c-0.2-0.1-0.2-0.3-0.2-0.6c0-0.2,0.1-0.4,0.2-0.6c0.2-0.1,0.4-0.2,0.8-0.2H-848.1z M-843.4,303.3
		c0-0.7-0.2-1.2-0.7-1.7c-0.5-0.5-1-0.7-1.7-0.7c-0.7,0-1.2,0.2-1.7,0.7c-0.5,0.5-0.7,1-0.7,1.6c0,0.6,0.2,1.1,0.6,1.4
		c0.4,0.4,1,0.6,1.7,0.6s1.3-0.2,1.7-0.6C-843.6,304.3-843.4,303.9-843.4,303.3z"/>
	<path class="st3" d="M-832.7,303.9h-6.5c0.2,0.4,0.5,0.7,0.9,1s1,0.4,1.7,0.4c0.6,0,1.4-0.1,2.3-0.4c0.4-0.1,0.7-0.2,0.8-0.2
		c0.2,0,0.4,0.1,0.5,0.2s0.2,0.3,0.2,0.6c0,0.2-0.1,0.4-0.2,0.5c-0.2,0.2-0.7,0.4-1.5,0.5c-0.8,0.2-1.6,0.3-2.3,0.3
		c-1.3,0-2.3-0.4-3-1.1c-0.8-0.7-1.1-1.6-1.1-2.6c0-1.1,0.4-2,1.2-2.7s1.8-1,2.8-1c0.6,0,1.2,0.1,1.8,0.3s0.9,0.5,1.2,0.7
		c0.4,0.4,0.7,0.8,0.9,1.4c0.2,0.4,0.2,0.8,0.2,1.4V303.9z M-834.5,302.3c-0.2-0.5-0.6-0.8-0.9-1s-0.9-0.3-1.4-0.3
		c-0.5,0-1,0.1-1.4,0.3s-0.7,0.6-1,1H-834.5z"/>
	<path class="st3" d="M-827.2,301.2v3.8h2.2c0.4,0,0.7,0.1,0.8,0.2c0.2,0.1,0.2,0.3,0.2,0.6c0,0.2-0.1,0.4-0.2,0.6
		c-0.2,0.1-0.4,0.2-0.8,0.2h-4.8c-0.4,0-0.7-0.1-0.8-0.2c-0.2-0.1-0.2-0.3-0.2-0.6c0-0.2,0.1-0.4,0.2-0.6c0.2-0.1,0.4-0.2,0.8-0.2
		h0.9v-3.8h-0.8c-0.4,0-0.7-0.1-0.8-0.2c-0.2-0.1-0.2-0.3-0.2-0.6c0-0.2,0.1-0.4,0.2-0.6c0.2-0.1,0.4-0.2,0.8-0.2h0.8V299
		c0-0.7,0.3-1.3,0.8-1.7s1.3-0.7,2.2-0.7c0.4,0,0.9,0,1.5,0.1s0.9,0.2,1.1,0.3c0.2,0.1,0.2,0.3,0.2,0.6c0,0.2-0.1,0.4-0.2,0.6
		c-0.1,0.2-0.3,0.2-0.5,0.2c-0.1,0-0.2,0-0.4-0.1c-0.7-0.1-1.2-0.2-1.7-0.2c-0.5,0-0.9,0.1-1.1,0.2c-0.2,0.2-0.3,0.4-0.3,0.6v0.6
		h2.4c0.4,0,0.7,0.1,0.8,0.2c0.2,0.1,0.2,0.3,0.2,0.6c0,0.2-0.1,0.4-0.2,0.6c-0.2,0.1-0.4,0.2-0.8,0.2H-827.2z"/>
	<path class="st3" d="M-813.7,303.2c0,0.6-0.2,1.2-0.5,1.8s-0.8,1-1.5,1.4s-1.4,0.5-2.1,0.5c-0.7,0-1.4-0.2-2.1-0.5
		c-0.7-0.3-1.2-0.8-1.5-1.4c-0.3-0.6-0.5-1.2-0.5-1.8c0-0.6,0.2-1.3,0.5-1.9c0.3-0.6,0.8-1.1,1.5-1.4c0.7-0.3,1.3-0.5,2.1-0.5
		c0.7,0,1.4,0.2,2.1,0.5c0.7,0.4,1.2,0.8,1.5,1.4C-813.9,302-813.7,302.6-813.7,303.2z M-815.3,303.2c0-0.5-0.2-1-0.5-1.4
		c-0.5-0.6-1.2-0.9-2-0.9c-0.7,0-1.3,0.2-1.8,0.7c-0.5,0.5-0.7,1-0.7,1.6c0,0.5,0.2,1,0.7,1.4s1.1,0.6,1.8,0.6
		c0.7,0,1.3-0.2,1.8-0.6C-815.5,304.2-815.3,303.7-815.3,303.2z"/>
	<path class="st3" d="M-808.6,299.6v1c0.7-0.5,1.2-0.8,1.6-1c0.4-0.2,0.7-0.2,1.1-0.2c0.5,0,1,0.2,1.5,0.6c0.3,0.3,0.5,0.5,0.5,0.8
		c0,0.2-0.1,0.4-0.2,0.6c-0.2,0.2-0.3,0.2-0.6,0.2c-0.2,0-0.4-0.1-0.6-0.3c-0.2-0.2-0.4-0.3-0.6-0.3c-0.2,0-0.6,0.1-1,0.4
		c-0.4,0.3-1,0.7-1.6,1.2v2.4h2.2c0.4,0,0.7,0.1,0.8,0.2c0.2,0.1,0.2,0.3,0.2,0.6c0,0.2-0.1,0.4-0.2,0.6c-0.2,0.1-0.4,0.2-0.8,0.2
		h-4.8c-0.4,0-0.7-0.1-0.8-0.2c-0.2-0.1-0.2-0.3-0.2-0.6c0-0.2,0.1-0.4,0.2-0.6c0.2-0.1,0.4-0.2,0.8-0.2h0.9v-3.8h-0.6
		c-0.4,0-0.7-0.1-0.8-0.2c-0.2-0.1-0.2-0.3-0.2-0.6c0-0.2,0.1-0.4,0.2-0.6c0.2-0.1,0.4-0.2,0.8-0.2H-808.6z"/>
	<path class="st3" d="M-794.9,303.9h-6.5c0.2,0.4,0.5,0.7,0.9,1s1,0.4,1.7,0.4c0.6,0,1.4-0.1,2.3-0.4c0.4-0.1,0.7-0.2,0.8-0.2
		c0.2,0,0.4,0.1,0.5,0.2s0.2,0.3,0.2,0.6c0,0.2-0.1,0.4-0.2,0.5c-0.2,0.2-0.7,0.4-1.5,0.5c-0.8,0.2-1.6,0.3-2.3,0.3
		c-1.3,0-2.3-0.4-3-1.1c-0.8-0.7-1.1-1.6-1.1-2.6c0-1.1,0.4-2,1.2-2.7s1.8-1,2.8-1c0.6,0,1.2,0.1,1.8,0.3s0.9,0.5,1.2,0.7
		c0.4,0.4,0.7,0.8,0.9,1.4c0.2,0.4,0.2,0.8,0.2,1.4V303.9z M-796.7,302.3c-0.2-0.5-0.6-0.8-0.9-1s-0.9-0.3-1.4-0.3
		c-0.5,0-1,0.1-1.4,0.3s-0.7,0.6-1,1H-796.7z"/>
	<path class="st3" d="M-784.4,302.8c0.2,0.2,0.3,0.4,0.4,0.6c0.1,0.2,0.1,0.5,0.1,1v2.5c0,0.2,0,0.4,0.1,0.5
		c0.1,0.1,0.2,0.1,0.4,0.2c0.2,0,0.4,0.1,0.5,0.2s0.2,0.3,0.2,0.5c0,0.2-0.1,0.4-0.2,0.6c-0.2,0.2-0.4,0.2-0.6,0.2
		c-0.3,0-0.7-0.1-1-0.3c-0.3-0.2-0.6-0.5-0.8-0.9c-0.1-0.3-0.2-0.6-0.2-0.9v-2.8c0-0.2,0-0.4-0.1-0.5c-0.1-0.1-0.2-0.1-0.5-0.2
		c-0.2,0-0.4-0.1-0.5-0.2c-0.1-0.1-0.2-0.3-0.2-0.5c0-0.2,0.1-0.4,0.2-0.6s0.3-0.2,0.5-0.2c0.2,0,0.4-0.1,0.4-0.1
		c0.1-0.1,0.1-0.3,0.1-0.5v-2.6c0-0.6,0.2-1.1,0.6-1.5c0.4-0.4,0.9-0.6,1.4-0.6c0.2,0,0.4,0.1,0.6,0.2c0.2,0.2,0.2,0.3,0.2,0.6
		c0,0.2-0.1,0.4-0.2,0.5s-0.3,0.2-0.5,0.3c-0.2,0-0.4,0.1-0.4,0.1c-0.1,0.1-0.1,0.3-0.1,0.5v2.5c0,0.4,0,0.6-0.1,0.8
		C-784.1,302.3-784.2,302.5-784.4,302.8z"/>
	<path class="st4" d="M-772.8,299.9c0.2-0.2,0.4-0.3,0.6-0.3c0.2,0,0.4,0.1,0.6,0.2c0.1,0.2,0.2,0.4,0.2,0.8v1
		c0,0.4-0.1,0.6-0.2,0.8c-0.1,0.2-0.3,0.2-0.6,0.2c-0.2,0-0.4-0.1-0.5-0.2c-0.1-0.1-0.2-0.3-0.3-0.6s-0.2-0.5-0.4-0.6
		c-0.4-0.2-0.9-0.4-1.6-0.4c-0.7,0-1.3,0.2-1.8,0.7c-0.4,0.4-0.7,1-0.7,1.7c0,0.6,0.2,1.1,0.6,1.5c0.4,0.4,1.1,0.5,2.1,0.5
		c0.7,0,1.2-0.1,1.6-0.2c0.2-0.1,0.5-0.2,0.7-0.4c0.2-0.2,0.4-0.3,0.6-0.3c0.2,0,0.4,0.1,0.6,0.2c0.2,0.2,0.2,0.3,0.2,0.6
		c0,0.3-0.2,0.7-0.7,1c-0.7,0.5-1.7,0.7-3.1,0.7c-1.2,0-2.2-0.3-2.9-0.8c-0.9-0.7-1.4-1.6-1.4-2.8c0-1.1,0.4-2.1,1.1-2.8
		s1.7-1.1,2.9-1.1c0.4,0,0.8,0,1.2,0.1C-773.4,299.6-773.1,299.7-772.8,299.9z"/>
	<path class="st4" d="M-761.7,303.2c0,0.6-0.2,1.2-0.5,1.8s-0.8,1-1.5,1.4s-1.4,0.5-2.1,0.5c-0.7,0-1.4-0.2-2.1-0.5
		c-0.7-0.3-1.2-0.8-1.5-1.4c-0.3-0.6-0.5-1.2-0.5-1.8c0-0.6,0.2-1.3,0.5-1.9c0.3-0.6,0.8-1.1,1.5-1.4c0.7-0.3,1.3-0.5,2.1-0.5
		c0.7,0,1.4,0.2,2.1,0.5c0.7,0.4,1.2,0.8,1.5,1.4C-761.8,302-761.7,302.6-761.7,303.2z M-763.2,303.2c0-0.5-0.2-1-0.5-1.4
		c-0.5-0.6-1.2-0.9-2-0.9c-0.7,0-1.3,0.2-1.8,0.7c-0.5,0.5-0.7,1-0.7,1.6c0,0.5,0.2,1,0.7,1.4s1.1,0.6,1.8,0.6
		c0.7,0,1.3-0.2,1.8-0.6C-763.5,304.2-763.2,303.7-763.2,303.2z"/>
	<path class="st4" d="M-757.9,299.6v0.5c0.3-0.2,0.6-0.4,1-0.6c0.3-0.1,0.7-0.2,1.1-0.2c0.9,0,1.7,0.3,2.2,0.9
		c0.4,0.5,0.6,1.1,0.6,1.8v2.9c0.3,0,0.6,0.1,0.7,0.2c0.2,0.1,0.2,0.3,0.2,0.6c0,0.2-0.1,0.4-0.2,0.6c-0.2,0.1-0.4,0.2-0.8,0.2h-1.4
		c-0.4,0-0.7-0.1-0.8-0.2c-0.2-0.1-0.2-0.3-0.2-0.6c0-0.2,0.1-0.4,0.2-0.6c0.2-0.1,0.4-0.2,0.7-0.2v-3c0-0.3-0.1-0.6-0.3-0.8
		c-0.2-0.2-0.6-0.3-1.1-0.3c-0.4,0-0.7,0.1-1,0.2s-0.6,0.4-1,0.9v2.9c0.4,0,0.7,0,0.8,0.1c0.3,0.2,0.4,0.4,0.4,0.7
		c0,0.2-0.1,0.4-0.2,0.6c-0.2,0.1-0.4,0.2-0.8,0.2h-1.8c-0.4,0-0.7-0.1-0.8-0.2c-0.2-0.1-0.2-0.3-0.2-0.6c0-0.3,0.1-0.5,0.4-0.7
		c0.1-0.1,0.4-0.1,0.8-0.1v-3.8c-0.3,0-0.6-0.1-0.7-0.2s-0.2-0.3-0.2-0.6c0-0.2,0.1-0.4,0.2-0.6c0.2-0.1,0.4-0.2,0.8-0.2H-757.9z"/>
	<path class="st4" d="M-747.2,301.2v3.2c0,0.3,0.1,0.6,0.2,0.7c0.2,0.2,0.6,0.3,1.2,0.3c0.8,0,1.5-0.2,2.2-0.5
		c0.3-0.1,0.5-0.2,0.6-0.2c0.2,0,0.4,0.1,0.5,0.2s0.2,0.3,0.2,0.6c0,0.2-0.1,0.4-0.2,0.5c-0.3,0.2-0.7,0.5-1.5,0.7s-1.4,0.3-1.9,0.3
		c-1,0-1.7-0.2-2.2-0.6c-0.5-0.4-0.7-0.9-0.7-1.6v-3.5h-0.6c-0.4,0-0.7-0.1-0.8-0.2c-0.2-0.1-0.2-0.3-0.2-0.6c0-0.2,0.1-0.4,0.2-0.6
		c0.2-0.1,0.4-0.2,0.8-0.2h0.6v-1.4c0-0.4,0.1-0.7,0.2-0.8c0.1-0.2,0.3-0.2,0.6-0.2c0.2,0,0.4,0.1,0.6,0.2s0.2,0.4,0.2,0.8v1.4h2.9
		c0.4,0,0.7,0.1,0.8,0.2c0.2,0.1,0.2,0.3,0.2,0.6c0,0.2-0.1,0.4-0.2,0.6c-0.2,0.1-0.4,0.2-0.8,0.2H-747.2z"/>
	<path class="st4" d="M-733.4,303.9h-6.5c0.2,0.4,0.5,0.7,0.9,1s1,0.4,1.7,0.4c0.6,0,1.4-0.1,2.3-0.4c0.4-0.1,0.7-0.2,0.8-0.2
		c0.2,0,0.4,0.1,0.5,0.2s0.2,0.3,0.2,0.6c0,0.2-0.1,0.4-0.2,0.5c-0.2,0.2-0.7,0.4-1.5,0.5c-0.8,0.2-1.6,0.3-2.3,0.3
		c-1.3,0-2.3-0.4-3-1.1c-0.8-0.7-1.1-1.6-1.1-2.6c0-1.1,0.4-2,1.2-2.7s1.8-1,2.8-1c0.6,0,1.2,0.1,1.8,0.3s0.9,0.5,1.2,0.7
		c0.4,0.4,0.7,0.8,0.9,1.4c0.2,0.4,0.2,0.8,0.2,1.4V303.9z M-735.2,302.3c-0.2-0.5-0.6-0.8-0.9-1s-0.9-0.3-1.4-0.3
		c-0.5,0-1,0.1-1.4,0.3s-0.7,0.6-1,1H-735.2z"/>
	<path class="st4" d="M-729.5,299.6v0.5c0.3-0.2,0.6-0.4,1-0.6c0.3-0.1,0.7-0.2,1.1-0.2c0.9,0,1.7,0.3,2.2,0.9
		c0.4,0.5,0.6,1.1,0.6,1.8v2.9c0.3,0,0.6,0.1,0.7,0.2c0.2,0.1,0.2,0.3,0.2,0.6c0,0.2-0.1,0.4-0.2,0.6c-0.2,0.1-0.4,0.2-0.8,0.2h-1.4
		c-0.4,0-0.7-0.1-0.8-0.2c-0.2-0.1-0.2-0.3-0.2-0.6c0-0.2,0.1-0.4,0.2-0.6c0.2-0.1,0.4-0.2,0.7-0.2v-3c0-0.3-0.1-0.6-0.3-0.8
		c-0.2-0.2-0.6-0.3-1.1-0.3c-0.4,0-0.7,0.1-1,0.2s-0.6,0.4-1,0.9v2.9c0.4,0,0.7,0,0.8,0.1c0.3,0.2,0.4,0.4,0.4,0.7
		c0,0.2-0.1,0.4-0.2,0.6c-0.2,0.1-0.4,0.2-0.8,0.2h-1.8c-0.4,0-0.7-0.1-0.8-0.2c-0.2-0.1-0.2-0.3-0.2-0.6c0-0.3,0.1-0.5,0.4-0.7
		c0.1-0.1,0.4-0.1,0.8-0.1v-3.8c-0.3,0-0.6-0.1-0.7-0.2s-0.2-0.3-0.2-0.6c0-0.2,0.1-0.4,0.2-0.6c0.2-0.1,0.4-0.2,0.8-0.2H-729.5z"/>
	<path class="st4" d="M-718.9,301.2v3.2c0,0.3,0.1,0.6,0.2,0.7c0.2,0.2,0.6,0.3,1.2,0.3c0.8,0,1.5-0.2,2.2-0.5
		c0.3-0.1,0.5-0.2,0.6-0.2c0.2,0,0.4,0.1,0.5,0.2s0.2,0.3,0.2,0.6c0,0.2-0.1,0.4-0.2,0.5c-0.3,0.2-0.7,0.5-1.5,0.7s-1.4,0.3-1.9,0.3
		c-1,0-1.7-0.2-2.2-0.6c-0.5-0.4-0.7-0.9-0.7-1.6v-3.5h-0.6c-0.4,0-0.7-0.1-0.8-0.2c-0.2-0.1-0.2-0.3-0.2-0.6c0-0.2,0.1-0.4,0.2-0.6
		c0.2-0.1,0.4-0.2,0.8-0.2h0.6v-1.4c0-0.4,0.1-0.7,0.2-0.8c0.1-0.2,0.3-0.2,0.6-0.2c0.2,0,0.4,0.1,0.6,0.2s0.2,0.4,0.2,0.8v1.4h2.9
		c0.4,0,0.7,0.1,0.8,0.2c0.2,0.1,0.2,0.3,0.2,0.6c0,0.2-0.1,0.4-0.2,0.6c-0.2,0.1-0.4,0.2-0.8,0.2H-718.9z"/>
	<path class="st5" d="M-707.8,300.6c0,0.3-0.1,0.5-0.3,0.7s-0.5,0.3-0.9,0.3c-0.4,0-0.7-0.1-0.9-0.3s-0.3-0.4-0.3-0.7
		c0-0.3,0.1-0.5,0.3-0.7c0.2-0.2,0.5-0.3,0.9-0.3c0.4,0,0.7,0.1,0.9,0.3C-707.9,300.1-707.8,300.4-707.8,300.6z M-707.8,305.8
		c0,0.3-0.1,0.5-0.3,0.7c-0.2,0.2-0.5,0.3-0.9,0.3c-0.4,0-0.7-0.1-0.9-0.3c-0.2-0.2-0.3-0.4-0.3-0.7s0.1-0.5,0.3-0.7
		c0.2-0.2,0.5-0.3,0.9-0.3c0.4,0,0.7,0.1,0.9,0.3C-707.9,305.3-707.8,305.5-707.8,305.8z"/>
	<path class="st6" d="M-696.4,296.9l1.4,3.4c0,0.1,0.1,0.2,0.1,0.3c0,0.1-0.1,0.2-0.2,0.3s-0.2,0.1-0.4,0.1c-0.1,0-0.3-0.1-0.4-0.3
		l-2.4-3.8H-696.4z M-693.1,296.9l1.4,3.4c0,0.1,0.1,0.2,0.1,0.3c0,0.1,0,0.2-0.2,0.3c-0.1,0.1-0.2,0.1-0.3,0.1
		c-0.2,0-0.3-0.1-0.4-0.3l-2.4-3.8H-693.1z"/>
	<path class="st6" d="M-682.9,297.7c0.1-0.1,0.2-0.2,0.3-0.3c0.1-0.1,0.2-0.1,0.4-0.1c0.2,0,0.4,0.1,0.6,0.2
		c0.1,0.2,0.2,0.4,0.2,0.8v1.3c0,0.4-0.1,0.6-0.2,0.8c-0.1,0.2-0.3,0.2-0.6,0.2c-0.2,0-0.4-0.1-0.5-0.2c-0.1-0.1-0.2-0.3-0.3-0.7
		c0-0.2-0.1-0.4-0.2-0.5c-0.2-0.2-0.5-0.4-0.9-0.6c-0.4-0.1-0.8-0.2-1.1-0.2c-0.5,0-0.9,0.1-1.3,0.3c-0.4,0.2-0.7,0.5-1,1
		c-0.3,0.5-0.5,1-0.5,1.6v1c0,0.8,0.3,1.4,0.8,1.9c0.6,0.5,1.3,0.8,2.3,0.8c0.6,0,1.1-0.1,1.5-0.2c0.2-0.1,0.5-0.3,0.8-0.5
		c0.2-0.2,0.3-0.3,0.4-0.3c0.1,0,0.2-0.1,0.3-0.1c0.2,0,0.4,0.1,0.6,0.2s0.2,0.3,0.2,0.6c0,0.2-0.1,0.4-0.3,0.7
		c-0.3,0.4-0.7,0.6-1.2,0.8c-0.7,0.3-1.4,0.4-2.2,0.4c-0.9,0-1.8-0.2-2.5-0.6c-0.6-0.3-1.1-0.8-1.5-1.5s-0.6-1.4-0.6-2.2v-1.1
		c0-0.8,0.2-1.6,0.6-2.3c0.4-0.7,0.9-1.3,1.6-1.6c0.7-0.4,1.4-0.6,2.2-0.6c0.5,0,0.9,0.1,1.3,0.2
		C-683.6,297.3-683.2,297.4-682.9,297.7z"/>
	<path class="st6" d="M-675.1,296.6v8.4h1.9c0.4,0,0.7,0.1,0.8,0.2c0.2,0.1,0.2,0.3,0.2,0.6c0,0.2-0.1,0.4-0.2,0.6
		c-0.2,0.1-0.4,0.2-0.8,0.2h-5.4c-0.4,0-0.7-0.1-0.8-0.2c-0.2-0.1-0.2-0.3-0.2-0.6c0-0.2,0.1-0.4,0.2-0.6c0.2-0.1,0.4-0.2,0.8-0.2
		h1.9v-6.8h-1.3c-0.4,0-0.6-0.1-0.8-0.2c-0.2-0.1-0.2-0.3-0.2-0.6c0-0.2,0.1-0.4,0.2-0.6c0.2-0.1,0.4-0.2,0.8-0.2H-675.1z"/>
	<path class="st6" d="M-665,306.6v-0.4c-0.4,0.2-0.8,0.4-1.3,0.5c-0.5,0.1-0.9,0.2-1.3,0.2c-0.8,0-1.5-0.2-2.1-0.7
		c-0.5-0.4-0.8-0.9-0.8-1.5c0-0.7,0.3-1.3,1-1.8c0.7-0.6,1.6-0.9,2.8-0.9c0.5,0,1,0.1,1.7,0.2v-0.4c0-0.2-0.1-0.4-0.3-0.6
		c-0.2-0.1-0.6-0.2-1.2-0.2c-0.5,0-1.1,0.1-1.8,0.3c-0.3,0.1-0.5,0.1-0.6,0.1c-0.2,0-0.4-0.1-0.5-0.2s-0.2-0.3-0.2-0.6
		c0-0.1,0-0.2,0.1-0.3c0.1-0.1,0.1-0.2,0.2-0.2c0.1-0.1,0.3-0.1,0.6-0.2c0.4-0.1,0.8-0.2,1.2-0.3c0.4-0.1,0.8-0.1,1.1-0.1
		c1,0,1.7,0.2,2.3,0.6c0.5,0.4,0.8,1,0.8,1.7v3.2h0.3c0.4,0,0.7,0.1,0.8,0.2c0.2,0.1,0.2,0.3,0.2,0.6c0,0.2-0.1,0.4-0.2,0.6
		c-0.2,0.1-0.4,0.2-0.8,0.2H-665z M-665,303.8c-0.6-0.1-1.2-0.2-1.7-0.2c-0.6,0-1.2,0.2-1.7,0.5c-0.3,0.2-0.4,0.4-0.4,0.6
		c0,0.1,0.1,0.3,0.2,0.4c0.3,0.2,0.6,0.3,1.1,0.3c0.4,0,0.8-0.1,1.3-0.2c0.5-0.1,0.9-0.4,1.3-0.6V303.8z"/>
	<path class="st6" d="M-657.3,299.6v1c0.7-0.5,1.2-0.8,1.6-1c0.4-0.2,0.7-0.2,1.1-0.2c0.5,0,1,0.2,1.5,0.6c0.3,0.3,0.5,0.5,0.5,0.8
		c0,0.2-0.1,0.4-0.2,0.6c-0.2,0.2-0.3,0.2-0.6,0.2c-0.2,0-0.4-0.1-0.6-0.3c-0.2-0.2-0.4-0.3-0.6-0.3c-0.2,0-0.6,0.1-1,0.4
		c-0.4,0.3-1,0.7-1.6,1.2v2.4h2.2c0.4,0,0.7,0.1,0.8,0.2c0.2,0.1,0.2,0.3,0.2,0.6c0,0.2-0.1,0.4-0.2,0.6c-0.2,0.1-0.4,0.2-0.8,0.2
		h-4.8c-0.4,0-0.7-0.1-0.8-0.2c-0.2-0.1-0.2-0.3-0.2-0.6c0-0.2,0.1-0.4,0.2-0.6c0.2-0.1,0.4-0.2,0.8-0.2h0.9v-3.8h-0.6
		c-0.4,0-0.7-0.1-0.8-0.2c-0.2-0.1-0.2-0.3-0.2-0.6c0-0.2,0.1-0.4,0.2-0.6c0.2-0.1,0.4-0.2,0.8-0.2H-657.3z"/>
	<path class="st6" d="M-648.8,304v2.6h-1.8c-0.4,0-0.7-0.1-0.8-0.2c-0.2-0.1-0.2-0.3-0.2-0.6c0-0.2,0.1-0.4,0.2-0.6
		c0.2-0.1,0.4-0.2,0.8-0.2h0.3v-6.8h-0.3c-0.4,0-0.7-0.1-0.8-0.2c-0.2-0.1-0.2-0.3-0.2-0.6c0-0.2,0.1-0.4,0.2-0.6
		c0.2-0.1,0.4-0.2,0.8-0.2h1.8v5.3l1.2-1c-0.1-0.2-0.2-0.4-0.2-0.5c0-0.2,0.1-0.4,0.2-0.6c0.2-0.1,0.4-0.2,0.8-0.2h1.8
		c0.4,0,0.7,0.1,0.8,0.2c0.2,0.1,0.2,0.3,0.2,0.6c0,0.2-0.1,0.4-0.2,0.6c-0.2,0.1-0.4,0.2-0.8,0.2h-0.4l-1.9,1.6l2.6,2.3h0.5
		c0.4,0,0.7,0.1,0.8,0.2c0.2,0.1,0.2,0.3,0.2,0.6c0,0.2-0.1,0.4-0.2,0.6c-0.2,0.1-0.4,0.2-0.8,0.2h-1.8c-0.4,0-0.7-0.1-0.8-0.2
		c-0.2-0.1-0.2-0.3-0.2-0.6c0-0.2,0.1-0.4,0.3-0.6l-1.7-1.5L-648.8,304z"/>
	<path class="st6" d="M-635,296.9h1.9l-2.4,3.8c-0.1,0.2-0.3,0.3-0.4,0.3c-0.1,0-0.3,0-0.4-0.1s-0.2-0.2-0.2-0.3
		c0-0.1,0-0.2,0.1-0.3L-635,296.9z M-631.7,296.9h1.9l-2.4,3.8c-0.1,0.2-0.3,0.3-0.4,0.3c-0.1,0-0.3,0-0.4-0.1s-0.2-0.2-0.2-0.3
		c0-0.1,0-0.2,0.1-0.3L-631.7,296.9z"/>
	<path class="st3" d="M-624.4,304.3h2l-2.2,3.6c-0.1,0.2-0.3,0.4-0.4,0.4c-0.1,0-0.2,0-0.3-0.1c-0.1-0.1-0.1-0.2-0.1-0.2
		c0-0.1,0-0.2,0.1-0.3L-624.4,304.3z M-622,300.7c0,0.3-0.1,0.5-0.3,0.7c-0.2,0.2-0.5,0.3-0.9,0.3c-0.4,0-0.7-0.1-0.9-0.3
		c-0.2-0.2-0.3-0.5-0.3-0.8c0-0.3,0.1-0.5,0.3-0.7c0.2-0.2,0.5-0.3,0.9-0.3s0.7,0.1,0.9,0.3C-622.1,300.1-622,300.4-622,300.7z"/>
	<path class="st3" d="M-614.8,302.8c-0.2-0.2-0.3-0.4-0.4-0.6c-0.1-0.2-0.1-0.5-0.1-0.8v-2.5c0-0.2,0-0.4-0.1-0.5
		c-0.1-0.1-0.2-0.1-0.4-0.2c-0.2,0-0.4-0.1-0.5-0.3c-0.1-0.1-0.2-0.3-0.2-0.5c0-0.2,0.1-0.4,0.2-0.6s0.4-0.2,0.6-0.2
		c0.3,0,0.7,0.1,1,0.3c0.3,0.2,0.6,0.5,0.8,0.9c0.1,0.3,0.2,0.6,0.2,0.9v2.6c0,0.2,0,0.4,0.1,0.5c0.1,0.1,0.2,0.1,0.5,0.2
		c0.2,0,0.4,0.1,0.5,0.2c0.1,0.1,0.2,0.3,0.2,0.6c0,0.2-0.1,0.4-0.2,0.5c-0.1,0.1-0.3,0.2-0.5,0.2c-0.2,0-0.4,0.1-0.4,0.1
		c-0.1,0.1-0.1,0.3-0.1,0.5v2.8c0,0.6-0.2,1.1-0.6,1.5c-0.4,0.4-0.9,0.6-1.4,0.6c-0.2,0-0.4-0.1-0.6-0.2c-0.2-0.2-0.2-0.3-0.2-0.6
		c0-0.2,0.1-0.4,0.2-0.5c0.1-0.1,0.3-0.2,0.5-0.3s0.4-0.1,0.4-0.1c0.1-0.1,0.1-0.3,0.1-0.5v-2.5c0-0.4,0-0.8,0.1-1
		C-615.1,303.2-615,303-614.8,302.8z"/>
</g>
<text transform="matrix(1 0 0 1 -1254.6951 203.7206)"><tspan x="0" y="0" style="font-family:'CourierNewPSMT'; font-size:12px;">/* HSL */</tspan><tspan x="0" y="14.4" style="font-family:'CourierNewPSMT'; font-size:12px;">$cb-white: hsla(100%, 10%, 94%, 1);</tspan><tspan x="0" y="28.8" style="font-family:'CourierNewPSMT'; font-size:12px;">$cb-green: hsla(78%, 56%, 66%, 1);</tspan><tspan x="0" y="43.2" style="font-family:'CourierNewPSMT'; font-size:12px;">$cb-black: hsla(197%, 7%, 21%, 1);</tspan><tspan x="0" y="57.6" style="font-family:'CourierNewPSMT'; font-size:12px;">$cb-altblue: hsla(184%, 43%, 57%, 1);</tspan><tspan x="0" y="72" style="font-family:'CourierNewPSMT'; font-size:12px;">$cb-red: hsla(354%, 71%, 55%, 1);</tspan><tspan x="0" y="100.8" style="font-family:'CourierNewPSMT'; font-size:12px;">/* RGB */</tspan><tspan x="0" y="115.2" style="font-family:'CourierNewPSMT'; font-size:12px;">$cb-white: rgba(240, 242, 239, 1);</tspan><tspan x="0" y="129.6" style="font-family:'CourierNewPSMT'; font-size:12px;">$cb-green: rgba(188, 217, 121, 1);</tspan><tspan x="0" y="144" style="font-family:'CourierNewPSMT'; font-size:12px;">$cb-black: rgba(49, 54, 56, 1);</tspan><tspan x="0" y="158.4" style="font-family:'CourierNewPSMT'; font-size:12px;">$cb-altblue: rgba(98, 187, 193, 1);</tspan><tspan x="0" y="172.8" style="font-family:'CourierNewPSMT'; font-size:12px;">$cb-red: rgba(222, 60, 75, 1);</tspan><tspan x="0" y="216" style="font-family:'CourierNewPSMT'; font-size:12px;">/* HSL */</tspan><tspan x="0" y="230.4" style="font-family:'CourierNewPSMT'; font-size:12px;">$cb-blue: hsla(206%, 83%, 58%, 1);</tspan><tspan x="0" y="244.8" style="font-family:'CourierNewPSMT'; font-size:12px;">$cb-gray: hsla(203%, 14%, 30%, 1);</tspan><tspan x="0" y="259.2" style="font-family:'CourierNewPSMT'; font-size:12px;">$cb-pink: hsla(345%, 76%, 58%, 1);</tspan><tspan x="0" y="273.6" style="font-family:'CourierNewPSMT'; font-size:12px;">$cb-yellow: hsla(52%, 86%, 62%, 1);</tspan><tspan x="0" y="288" style="font-family:'CourierNewPSMT'; font-size:12px;">$cb-altgreen: hsla(168%, 87%, 58%, 1);</tspan><tspan x="0" y="316.8" style="font-family:'CourierNewPSMT'; font-size:12px;">/* RGB */</tspan><tspan x="0" y="331.2" style="font-family:'CourierNewPSMT'; font-size:12px;">$cb-blue: rgba(57, 160, 237, 1);</tspan><tspan x="0" y="345.6" style="font-family:'CourierNewPSMT'; font-size:12px;">$cb-gray: rgba(67, 80, 88, 1);</tspan><tspan x="0" y="360" style="font-family:'CourierNewPSMT'; font-size:12px;">$cb-pink: rgba(229, 68, 109, 1);</tspan><tspan x="0" y="374.4" style="font-family:'CourierNewPSMT'; font-size:12px;">$cb-yellow: rgba(241, 219, 75, 1);</tspan><tspan x="0" y="388.8" style="font-family:'CourierNewPSMT'; font-size:12px;">$cb-altgreen: rgba(54, 241, 205, 1);</tspan></text>
<rect x="-957.2" y="477.8" class="st7" width="53.3" height="53.3"/>
<rect x="-879.3" y="477.8" class="st8" width="53.3" height="53.3"/>
<rect x="-804.5" y="477.8" class="st3" width="53.3" height="53.3"/>
<rect x="-734.7" y="477.8" class="st9" width="53.3" height="53.3"/>
<rect x="-665" y="477.8" class="st10" width="53.3" height="53.3"/>
<rect x="-957.2" y="400.2" class="st11" width="53.3" height="53.3"/>
<rect x="-879.3" y="400.2" class="st6" width="53.3" height="53.3"/>
<rect x="-804.5" y="400.2" class="st5" width="53.3" height="53.3"/>
<rect x="-734.7" y="400.2" class="st4" width="53.3" height="53.3"/>
<rect x="-665" y="400.2" class="st2" width="53.3" height="53.3"/>
<g>
	<path class="st2" d="M6.8,4.7h0.4c0.4,0,0.7,0.1,0.8,0.2c0.2,0.1,0.2,0.3,0.2,0.6c0,0.2-0.1,0.4-0.2,0.6C7.8,6.2,7.5,6.3,7.2,6.3
		H6.7L6.5,8h0.3c0.4,0,0.7,0.1,0.8,0.2c0.2,0.1,0.2,0.3,0.2,0.6c0,0.2-0.1,0.4-0.2,0.6C7.5,9.5,7.2,9.6,6.8,9.6H6.4l-0.2,2.7
		c0,0,0,0.2-0.1,0.5C6.1,13,6,13.1,5.8,13.2c-0.1,0.1-0.3,0.1-0.4,0.1c-0.2,0-0.4-0.1-0.5-0.2c-0.2-0.2-0.2-0.4-0.2-0.6
		c0,0,0-0.1,0-0.3l0.2-2.6H3.7l-0.2,2.7c0,0.3,0,0.4-0.1,0.5c-0.1,0.2-0.2,0.3-0.3,0.4c-0.1,0.1-0.3,0.1-0.5,0.1
		c-0.2,0-0.4-0.1-0.6-0.2c-0.2-0.2-0.2-0.4-0.2-0.6c0-0.1,0-0.2,0-0.3l0.2-2.6H1.7c-0.4,0-0.7-0.1-0.8-0.2C0.7,9.2,0.7,9,0.7,8.8
		c0-0.2,0.1-0.4,0.2-0.6C1.1,8.1,1.3,8,1.7,8h0.5l0.1-1.7H2c-0.4,0-0.7-0.1-0.8-0.2C1.1,5.9,1,5.7,1,5.5c0-0.2,0.1-0.4,0.2-0.6
		C1.4,4.8,1.7,4.7,2,4.7h0.4L2.6,2c0-0.3,0-0.4,0.1-0.5C2.8,1.4,2.8,1.2,3,1.1C3.1,1,3.3,1,3.4,1C3.6,1,3.8,1.1,4,1.2
		c0.2,0.2,0.2,0.4,0.2,0.6c0,0.1,0,0.2,0,0.3L4,4.7h1.2L5.4,2c0-0.4,0.1-0.6,0.2-0.8S6,1,6.2,1c0.2,0,0.4,0.1,0.6,0.2
		C6.9,1.4,7,1.6,7,1.8c0,0.1,0,0.1,0,0.1l0,0.2L6.8,4.7z M5.1,6.3H3.9L3.8,8H5L5.1,6.3z"/>
	<path class="st2" d="M10.7,10.2V4.1h-0.2c-0.4,0-0.6-0.1-0.8-0.2C9.5,3.7,9.4,3.5,9.4,3.3c0-0.2,0.1-0.4,0.2-0.6
		c0.2-0.1,0.4-0.2,0.8-0.2h4c0.9,0,1.7,0.3,2.3,0.8c0.6,0.5,0.9,1.2,0.9,1.9c0,0.3-0.1,0.7-0.2,1c-0.1,0.3-0.3,0.6-0.6,0.8
		c0.5,0.3,0.9,0.6,1.1,1c0.2,0.4,0.4,0.8,0.4,1.4c0,0.4-0.1,0.8-0.3,1.1c-0.1,0.3-0.3,0.5-0.5,0.6c-0.3,0.2-0.6,0.4-1,0.5
		c-0.4,0.1-0.9,0.2-1.4,0.2h-4.6c-0.4,0-0.6-0.1-0.8-0.2c-0.2-0.1-0.2-0.3-0.2-0.6c0-0.2,0.1-0.4,0.2-0.6c0.2-0.1,0.4-0.2,0.8-0.2
		H10.7z M12.3,6.4H14c0.6,0,1.1-0.2,1.5-0.5C15.8,5.7,16,5.4,16,5.1c0-0.3-0.1-0.5-0.4-0.7c-0.3-0.2-0.7-0.3-1.2-0.3h-2.1V6.4z
		 M12.3,10.2H15c0.6,0,1.1-0.1,1.4-0.3c0.2-0.1,0.3-0.3,0.3-0.6c0-0.3-0.2-0.6-0.6-0.9c-0.4-0.3-1-0.5-1.7-0.5h-2.1V10.2z"/>
	<path class="st2" d="M24.8,11.8v-0.4c-0.4,0.2-0.8,0.4-1.3,0.5c-0.5,0.1-0.9,0.2-1.3,0.2c-0.8,0-1.5-0.2-2.1-0.7
		c-0.5-0.4-0.8-0.9-0.8-1.5c0-0.7,0.3-1.3,1-1.8c0.7-0.6,1.6-0.9,2.8-0.9c0.5,0,1,0.1,1.7,0.2V7c0-0.2-0.1-0.4-0.3-0.6
		c-0.2-0.1-0.6-0.2-1.2-0.2c-0.5,0-1.1,0.1-1.8,0.3c-0.3,0.1-0.5,0.1-0.6,0.1c-0.2,0-0.4-0.1-0.5-0.2S20.1,6,20.1,5.8
		c0-0.1,0-0.2,0.1-0.3c0.1-0.1,0.1-0.2,0.2-0.2C20.5,5.1,20.7,5.1,21,5c0.4-0.1,0.8-0.2,1.2-0.3c0.4-0.1,0.8-0.1,1.1-0.1
		c1,0,1.7,0.2,2.3,0.6c0.5,0.4,0.8,1,0.8,1.7v3.2h0.3c0.4,0,0.7,0.1,0.8,0.2c0.2,0.1,0.2,0.3,0.2,0.6c0,0.2-0.1,0.4-0.2,0.6
		c-0.2,0.1-0.4,0.2-0.8,0.2H24.8z M24.8,9c-0.6-0.1-1.2-0.2-1.7-0.2c-0.6,0-1.2,0.2-1.7,0.5c-0.3,0.2-0.4,0.4-0.4,0.6
		c0,0.1,0.1,0.3,0.2,0.4c0.3,0.2,0.6,0.3,1.1,0.3c0.4,0,0.8-0.1,1.3-0.2c0.5-0.1,0.9-0.4,1.3-0.6V9z"/>
	<path class="st2" d="M35.3,5.1c0.2-0.2,0.4-0.3,0.6-0.3c0.2,0,0.4,0.1,0.6,0.2c0.1,0.2,0.2,0.4,0.2,0.8v1c0,0.4-0.1,0.6-0.2,0.8
		c-0.1,0.2-0.3,0.2-0.6,0.2c-0.2,0-0.4-0.1-0.5-0.2c-0.1-0.1-0.2-0.3-0.3-0.6s-0.2-0.5-0.4-0.6c-0.4-0.2-0.9-0.4-1.6-0.4
		c-0.7,0-1.3,0.2-1.8,0.7c-0.4,0.4-0.7,1-0.7,1.7c0,0.6,0.2,1.1,0.6,1.5c0.4,0.4,1.1,0.5,2.1,0.5c0.7,0,1.2-0.1,1.6-0.2
		c0.2-0.1,0.5-0.2,0.7-0.4c0.2-0.2,0.4-0.3,0.6-0.3c0.2,0,0.4,0.1,0.6,0.2C37,10,37,10.2,37,10.4c0,0.3-0.2,0.7-0.7,1
		c-0.7,0.5-1.7,0.7-3.1,0.7c-1.2,0-2.2-0.3-2.9-0.8C29.4,10.6,29,9.7,29,8.5c0-1.1,0.4-2.1,1.1-2.8s1.7-1.1,2.9-1.1
		c0.4,0,0.8,0,1.2,0.1C34.6,4.8,35,4.9,35.3,5.1z"/>
	<path class="st2" d="M40.7,1.8v3.4c0.3-0.2,0.7-0.3,1-0.4c0.3-0.1,0.7-0.1,1-0.1c0.5,0,1,0.1,1.5,0.3s0.8,0.5,1.1,0.9
		c0.3,0.4,0.4,0.9,0.4,1.5v3c0.4,0,0.7,0,0.8,0.1c0.2,0.2,0.4,0.4,0.4,0.7c0,0.2-0.1,0.4-0.2,0.6c-0.2,0.1-0.4,0.2-0.8,0.2h-1.8
		c-0.4,0-0.6-0.1-0.8-0.2c-0.2-0.1-0.2-0.3-0.2-0.6c0-0.3,0.1-0.5,0.4-0.7c0.1-0.1,0.4-0.1,0.8-0.1V7.4c0-0.4-0.1-0.7-0.3-0.9
		c-0.2-0.2-0.6-0.3-1.1-0.3c-0.3,0-0.7,0.1-0.9,0.2c-0.3,0.1-0.6,0.4-1.1,0.9v3c0.4,0,0.7,0,0.8,0.1c0.3,0.2,0.4,0.4,0.4,0.7
		c0,0.2-0.1,0.4-0.2,0.6c-0.2,0.1-0.4,0.2-0.8,0.2H39c-0.4,0-0.7-0.1-0.8-0.2c-0.2-0.1-0.2-0.3-0.2-0.6c0-0.3,0.1-0.5,0.4-0.7
		c0.1-0.1,0.4-0.1,0.8-0.1V3.4h-0.3c-0.4,0-0.7-0.1-0.8-0.2c-0.2-0.1-0.2-0.3-0.2-0.6c0-0.2,0.1-0.4,0.2-0.6
		c0.2-0.1,0.4-0.2,0.8-0.2H40.7z"/>
	<path class="st2" d="M55.7,9.1h-6.5c0.2,0.4,0.5,0.7,0.9,1s1,0.4,1.7,0.4c0.6,0,1.4-0.1,2.3-0.4C54.5,10,54.8,10,55,10
		c0.2,0,0.4,0.1,0.5,0.2s0.2,0.3,0.2,0.6c0,0.2-0.1,0.4-0.2,0.5c-0.2,0.2-0.7,0.4-1.5,0.5c-0.8,0.2-1.6,0.3-2.3,0.3
		c-1.3,0-2.3-0.4-3-1.1c-0.8-0.7-1.1-1.6-1.1-2.6c0-1.1,0.4-2,1.2-2.7s1.8-1,2.8-1c0.6,0,1.2,0.1,1.8,0.3s0.9,0.5,1.2,0.7
		c0.4,0.4,0.7,0.8,0.9,1.4c0.2,0.4,0.2,0.8,0.2,1.4V9.1z M53.9,7.5c-0.2-0.5-0.6-0.8-0.9-1s-0.9-0.3-1.4-0.3c-0.5,0-1,0.1-1.4,0.3
		s-0.7,0.6-1,1H53.9z"/>
	<path class="st2" d="M62,1.8v8.4h1.9c0.4,0,0.7,0.1,0.8,0.2c0.2,0.1,0.2,0.3,0.2,0.6c0,0.2-0.1,0.4-0.2,0.6
		c-0.2,0.1-0.4,0.2-0.8,0.2h-5.4c-0.4,0-0.7-0.1-0.8-0.2c-0.2-0.1-0.2-0.3-0.2-0.6c0-0.2,0.1-0.4,0.2-0.6c0.2-0.1,0.4-0.2,0.8-0.2
		h1.9V3.4h-1.3c-0.4,0-0.6-0.1-0.8-0.2c-0.2-0.1-0.2-0.3-0.2-0.6c0-0.2,0.1-0.4,0.2-0.6c0.2-0.1,0.4-0.2,0.8-0.2H62z"/>
	<path class="st2" d="M74.7,8.4c0,0.6-0.2,1.2-0.5,1.8s-0.8,1-1.5,1.4s-1.4,0.5-2.1,0.5c-0.7,0-1.4-0.2-2.1-0.5
		c-0.7-0.3-1.2-0.8-1.5-1.4c-0.3-0.6-0.5-1.2-0.5-1.8c0-0.6,0.2-1.3,0.5-1.9C67.5,6,68,5.5,68.6,5.1c0.7-0.3,1.3-0.5,2.1-0.5
		c0.7,0,1.4,0.2,2.1,0.5c0.7,0.4,1.2,0.8,1.5,1.4C74.6,7.2,74.7,7.8,74.7,8.4z M73.2,8.5c0-0.5-0.2-1-0.5-1.4
		c-0.5-0.6-1.2-0.9-2-0.9c-0.7,0-1.3,0.2-1.8,0.7c-0.5,0.5-0.7,1-0.7,1.6c0,0.5,0.2,1,0.7,1.4s1.1,0.6,1.8,0.6
		c0.7,0,1.3-0.2,1.8-0.6C72.9,9.4,73.2,9,73.2,8.5z"/>
	<path class="st2" d="M79.7,6.4v3.2c0,0.3,0.1,0.6,0.2,0.7c0.2,0.2,0.6,0.3,1.2,0.3c0.8,0,1.5-0.2,2.2-0.5c0.3-0.1,0.5-0.2,0.6-0.2
		c0.2,0,0.4,0.1,0.5,0.2s0.2,0.3,0.2,0.6c0,0.2-0.1,0.4-0.2,0.5c-0.3,0.2-0.7,0.5-1.5,0.7s-1.4,0.3-1.9,0.3c-1,0-1.7-0.2-2.2-0.6
		c-0.5-0.4-0.7-0.9-0.7-1.6V6.4h-0.6c-0.4,0-0.7-0.1-0.8-0.2c-0.2-0.1-0.2-0.3-0.2-0.6c0-0.2,0.1-0.4,0.2-0.6
		c0.2-0.1,0.4-0.2,0.8-0.2h0.6V3.4c0-0.4,0.1-0.7,0.2-0.8c0.1-0.2,0.3-0.2,0.6-0.2c0.2,0,0.4,0.1,0.6,0.2s0.2,0.4,0.2,0.8v1.4h2.9
		c0.4,0,0.7,0.1,0.8,0.2c0.2,0.1,0.2,0.3,0.2,0.6c0,0.2-0.1,0.4-0.2,0.6c-0.2,0.1-0.4,0.2-0.8,0.2H79.7z"/>
	<path class="st3" d="M90.8,5.9c0,0.3-0.1,0.5-0.3,0.7s-0.5,0.3-0.9,0.3c-0.4,0-0.7-0.1-0.9-0.3s-0.3-0.4-0.3-0.7
		c0-0.3,0.1-0.5,0.3-0.7c0.2-0.2,0.5-0.3,0.9-0.3c0.4,0,0.7,0.1,0.9,0.3C90.7,5.3,90.8,5.6,90.8,5.9z M90.8,11
		c0,0.3-0.1,0.5-0.3,0.7c-0.2,0.2-0.5,0.3-0.9,0.3c-0.4,0-0.7-0.1-0.9-0.3c-0.2-0.2-0.3-0.4-0.3-0.7s0.1-0.5,0.3-0.7
		c0.2-0.2,0.5-0.3,0.9-0.3c0.4,0,0.7,0.1,0.9,0.3C90.7,10.5,90.8,10.7,90.8,11z"/>
	<path class="st3" d="M95.8,5.9c0,0.3-0.1,0.5-0.3,0.7S95,6.9,94.6,6.9c-0.4,0-0.7-0.1-0.9-0.3s-0.3-0.4-0.3-0.7
		c0-0.3,0.1-0.5,0.3-0.7c0.2-0.2,0.5-0.3,0.9-0.3c0.4,0,0.7,0.1,0.9,0.3C95.7,5.3,95.8,5.6,95.8,5.9z M95.8,11
		c0,0.3-0.1,0.5-0.3,0.7c-0.2,0.2-0.5,0.3-0.9,0.3c-0.4,0-0.7-0.1-0.9-0.3c-0.2-0.2-0.3-0.4-0.3-0.7s0.1-0.5,0.3-0.7
		c0.2-0.2,0.5-0.3,0.9-0.3c0.4,0,0.7,0.1,0.9,0.3C95.7,10.5,95.8,10.7,95.8,11z"/>
	<path class="st3" d="M102.1,1.8v3.5c0.4-0.3,0.8-0.4,1.2-0.6c0.4-0.1,0.8-0.2,1.2-0.2c1.1,0,2,0.4,2.8,1.1c0.8,0.8,1.1,1.7,1.1,2.7
		c0,1-0.4,1.9-1.1,2.6c-0.7,0.7-1.7,1-2.9,1c-0.4,0-0.8-0.1-1.2-0.2s-0.8-0.3-1.1-0.5v0.4h-1.8c-0.4,0-0.7-0.1-0.8-0.2
		c-0.2-0.1-0.2-0.3-0.2-0.6c0-0.2,0.1-0.4,0.2-0.6c0.2-0.1,0.4-0.2,0.8-0.2h0.3V3.4h-0.3c-0.4,0-0.7-0.1-0.8-0.2
		c-0.2-0.1-0.2-0.3-0.2-0.6c0-0.2,0.1-0.4,0.2-0.6c0.2-0.1,0.4-0.2,0.8-0.2H102.1z M106.8,8.5c0-0.7-0.2-1.2-0.7-1.7
		c-0.5-0.5-1-0.7-1.7-0.7c-0.7,0-1.2,0.2-1.7,0.7c-0.5,0.5-0.7,1-0.7,1.6c0,0.6,0.2,1.1,0.6,1.4c0.4,0.4,1,0.6,1.7,0.6
		s1.3-0.2,1.7-0.6C106.6,9.6,106.8,9.1,106.8,8.5z"/>
	<path class="st3" d="M117.5,9.1H111c0.2,0.4,0.5,0.7,0.9,1s1,0.4,1.7,0.4c0.6,0,1.4-0.1,2.3-0.4c0.4-0.1,0.7-0.2,0.8-0.2
		c0.2,0,0.4,0.1,0.5,0.2s0.2,0.3,0.2,0.6c0,0.2-0.1,0.4-0.2,0.5c-0.2,0.2-0.7,0.4-1.5,0.5c-0.8,0.2-1.6,0.3-2.3,0.3
		c-1.3,0-2.3-0.4-3-1.1c-0.8-0.7-1.1-1.6-1.1-2.6c0-1.1,0.4-2,1.2-2.7s1.8-1,2.8-1c0.6,0,1.2,0.1,1.8,0.3s0.9,0.5,1.2,0.7
		c0.4,0.4,0.7,0.8,0.9,1.4c0.2,0.4,0.2,0.8,0.2,1.4V9.1z M115.7,7.5c-0.2-0.5-0.6-0.8-0.9-1s-0.9-0.3-1.4-0.3c-0.5,0-1,0.1-1.4,0.3
		s-0.7,0.6-1,1H115.7z"/>
	<path class="st3" d="M123,6.4v3.8h2.2c0.4,0,0.7,0.1,0.8,0.2c0.2,0.1,0.2,0.3,0.2,0.6c0,0.2-0.1,0.4-0.2,0.6
		c-0.2,0.1-0.4,0.2-0.8,0.2h-4.8c-0.4,0-0.7-0.1-0.8-0.2c-0.2-0.1-0.2-0.3-0.2-0.6c0-0.2,0.1-0.4,0.2-0.6c0.2-0.1,0.4-0.2,0.8-0.2
		h0.9V6.4h-0.8c-0.4,0-0.7-0.1-0.8-0.2c-0.2-0.1-0.2-0.3-0.2-0.6c0-0.2,0.1-0.4,0.2-0.6c0.2-0.1,0.4-0.2,0.8-0.2h0.8V4.2
		c0-0.7,0.3-1.3,0.8-1.7s1.3-0.7,2.2-0.7c0.4,0,0.9,0,1.5,0.1s0.9,0.2,1.1,0.3c0.2,0.1,0.2,0.3,0.2,0.6c0,0.2-0.1,0.4-0.2,0.6
		c-0.1,0.2-0.3,0.2-0.5,0.2c-0.1,0-0.2,0-0.4-0.1c-0.7-0.1-1.2-0.2-1.7-0.2c-0.5,0-0.9,0.1-1.1,0.2C123.1,3.8,123,4,123,4.2v0.6h2.4
		c0.4,0,0.7,0.1,0.8,0.2c0.2,0.1,0.2,0.3,0.2,0.6c0,0.2-0.1,0.4-0.2,0.6c-0.2,0.1-0.4,0.2-0.8,0.2H123z"/>
	<path class="st3" d="M136.5,8.4c0,0.6-0.2,1.2-0.5,1.8s-0.8,1-1.5,1.4s-1.4,0.5-2.1,0.5c-0.7,0-1.4-0.2-2.1-0.5
		c-0.7-0.3-1.2-0.8-1.5-1.4c-0.3-0.6-0.5-1.2-0.5-1.8c0-0.6,0.2-1.3,0.5-1.9c0.3-0.6,0.8-1.1,1.5-1.4c0.7-0.3,1.3-0.5,2.1-0.5
		c0.7,0,1.4,0.2,2.1,0.5c0.7,0.4,1.2,0.8,1.5,1.4C136.4,7.2,136.5,7.8,136.5,8.4z M135,8.5c0-0.5-0.2-1-0.5-1.4
		c-0.5-0.6-1.2-0.9-2-0.9c-0.7,0-1.3,0.2-1.8,0.7c-0.5,0.5-0.7,1-0.7,1.6c0,0.5,0.2,1,0.7,1.4s1.1,0.6,1.8,0.6
		c0.7,0,1.3-0.2,1.8-0.6C134.7,9.4,135,9,135,8.5z"/>
	<path class="st3" d="M141.6,4.8v1c0.7-0.5,1.2-0.8,1.6-1c0.4-0.2,0.7-0.2,1.1-0.2c0.5,0,1,0.2,1.5,0.6c0.3,0.3,0.5,0.5,0.5,0.8
		c0,0.2-0.1,0.4-0.2,0.6c-0.2,0.2-0.3,0.2-0.6,0.2c-0.2,0-0.4-0.1-0.6-0.3c-0.2-0.2-0.4-0.3-0.6-0.3c-0.2,0-0.6,0.1-1,0.4
		c-0.4,0.3-1,0.7-1.6,1.2v2.4h2.2c0.4,0,0.7,0.1,0.8,0.2c0.2,0.1,0.2,0.3,0.2,0.6c0,0.2-0.1,0.4-0.2,0.6c-0.2,0.1-0.4,0.2-0.8,0.2
		h-4.8c-0.4,0-0.7-0.1-0.8-0.2c-0.2-0.1-0.2-0.3-0.2-0.6c0-0.2,0.1-0.4,0.2-0.6c0.2-0.1,0.4-0.2,0.8-0.2h0.9V6.4h-0.6
		c-0.4,0-0.7-0.1-0.8-0.2c-0.2-0.1-0.2-0.3-0.2-0.6c0-0.2,0.1-0.4,0.2-0.6c0.2-0.1,0.4-0.2,0.8-0.2H141.6z"/>
	<path class="st3" d="M155.3,9.1h-6.5c0.2,0.4,0.5,0.7,0.9,1s1,0.4,1.7,0.4c0.6,0,1.4-0.1,2.3-0.4c0.4-0.1,0.7-0.2,0.8-0.2
		c0.2,0,0.4,0.1,0.5,0.2s0.2,0.3,0.2,0.6c0,0.2-0.1,0.4-0.2,0.5c-0.2,0.2-0.7,0.4-1.5,0.5c-0.8,0.2-1.6,0.3-2.3,0.3
		c-1.3,0-2.3-0.4-3-1.1c-0.8-0.7-1.1-1.6-1.1-2.6c0-1.1,0.4-2,1.2-2.7s1.8-1,2.8-1c0.6,0,1.2,0.1,1.8,0.3s0.9,0.5,1.2,0.7
		c0.4,0.4,0.7,0.8,0.9,1.4c0.2,0.4,0.2,0.8,0.2,1.4V9.1z M153.6,7.5c-0.2-0.5-0.6-0.8-0.9-1s-0.9-0.3-1.4-0.3c-0.5,0-1,0.1-1.4,0.3
		s-0.7,0.6-1,1H153.6z"/>
	<path class="st3" d="M165.9,8c0.2,0.2,0.3,0.4,0.4,0.6c0.1,0.2,0.1,0.5,0.1,1v2.5c0,0.2,0,0.4,0.1,0.5c0.1,0.1,0.2,0.1,0.4,0.2
		c0.2,0,0.4,0.1,0.5,0.2s0.2,0.3,0.2,0.5c0,0.2-0.1,0.4-0.2,0.6c-0.2,0.2-0.4,0.2-0.6,0.2c-0.3,0-0.7-0.1-1-0.3
		c-0.3-0.2-0.6-0.5-0.8-0.9c-0.1-0.3-0.2-0.6-0.2-0.9V9.4c0-0.2,0-0.4-0.1-0.5c-0.1-0.1-0.2-0.1-0.5-0.2c-0.2,0-0.4-0.1-0.5-0.2
		c-0.1-0.1-0.2-0.3-0.2-0.5c0-0.2,0.1-0.4,0.2-0.6s0.3-0.2,0.5-0.2c0.2,0,0.4-0.1,0.4-0.1c0.1-0.1,0.1-0.3,0.1-0.5V3.9
		c0-0.6,0.2-1.1,0.6-1.5c0.4-0.4,0.9-0.6,1.4-0.6c0.2,0,0.4,0.1,0.6,0.2c0.2,0.2,0.2,0.3,0.2,0.6c0,0.2-0.1,0.4-0.2,0.5
		s-0.3,0.2-0.5,0.3c-0.2,0-0.4,0.1-0.4,0.1c-0.1,0.1-0.1,0.3-0.1,0.5v2.5c0,0.4,0,0.6-0.1,0.8C166.2,7.6,166,7.8,165.9,8z"/>
	<path class="st4" d="M177.5,5.1c0.2-0.2,0.4-0.3,0.6-0.3c0.2,0,0.4,0.1,0.6,0.2c0.1,0.2,0.2,0.4,0.2,0.8v1c0,0.4-0.1,0.6-0.2,0.8
		c-0.1,0.2-0.3,0.2-0.6,0.2c-0.2,0-0.4-0.1-0.5-0.2c-0.1-0.1-0.2-0.3-0.3-0.6s-0.2-0.5-0.4-0.6c-0.4-0.2-0.9-0.4-1.6-0.4
		c-0.7,0-1.3,0.2-1.8,0.7c-0.4,0.4-0.7,1-0.7,1.7c0,0.6,0.2,1.1,0.6,1.5c0.4,0.4,1.1,0.5,2.1,0.5c0.7,0,1.2-0.1,1.6-0.2
		c0.2-0.1,0.5-0.2,0.7-0.4c0.2-0.2,0.4-0.3,0.6-0.3c0.2,0,0.4,0.1,0.6,0.2c0.2,0.2,0.2,0.3,0.2,0.6c0,0.3-0.2,0.7-0.7,1
		c-0.7,0.5-1.7,0.7-3.1,0.7c-1.2,0-2.2-0.3-2.9-0.8c-0.9-0.7-1.4-1.6-1.4-2.8c0-1.1,0.4-2.1,1.1-2.8s1.7-1.1,2.9-1.1
		c0.4,0,0.8,0,1.2,0.1C176.8,4.8,177.1,4.9,177.5,5.1z"/>
	<path class="st4" d="M188.6,8.4c0,0.6-0.2,1.2-0.5,1.8s-0.8,1-1.5,1.4s-1.4,0.5-2.1,0.5c-0.7,0-1.4-0.2-2.1-0.5
		c-0.7-0.3-1.2-0.8-1.5-1.4c-0.3-0.6-0.5-1.2-0.5-1.8c0-0.6,0.2-1.3,0.5-1.9c0.3-0.6,0.8-1.1,1.5-1.4c0.7-0.3,1.3-0.5,2.1-0.5
		c0.7,0,1.4,0.2,2.1,0.5c0.7,0.4,1.2,0.8,1.5,1.4C188.4,7.2,188.6,7.8,188.6,8.4z M187,8.5c0-0.5-0.2-1-0.5-1.4
		c-0.5-0.6-1.2-0.9-2-0.9c-0.7,0-1.3,0.2-1.8,0.7c-0.5,0.5-0.7,1-0.7,1.6c0,0.5,0.2,1,0.7,1.4s1.1,0.6,1.8,0.6
		c0.7,0,1.3-0.2,1.8-0.6C186.7,9.4,187,9,187,8.5z"/>
	<path class="st4" d="M192.3,4.8v0.5c0.3-0.2,0.6-0.4,1-0.6c0.3-0.1,0.7-0.2,1.1-0.2c0.9,0,1.7,0.3,2.2,0.9c0.4,0.5,0.6,1.1,0.6,1.8
		v2.9c0.3,0,0.6,0.1,0.7,0.2c0.2,0.1,0.2,0.3,0.2,0.6c0,0.2-0.1,0.4-0.2,0.6c-0.2,0.1-0.4,0.2-0.8,0.2h-1.4c-0.4,0-0.7-0.1-0.8-0.2
		c-0.2-0.1-0.2-0.3-0.2-0.6c0-0.2,0.1-0.4,0.2-0.6c0.2-0.1,0.4-0.2,0.7-0.2v-3c0-0.3-0.1-0.6-0.3-0.8c-0.2-0.2-0.6-0.3-1.1-0.3
		c-0.4,0-0.7,0.1-1,0.2s-0.6,0.4-1,0.9v2.9c0.4,0,0.7,0,0.8,0.1c0.3,0.2,0.4,0.4,0.4,0.7c0,0.2-0.1,0.4-0.2,0.6
		c-0.2,0.1-0.4,0.2-0.8,0.2h-1.8c-0.4,0-0.7-0.1-0.8-0.2c-0.2-0.1-0.2-0.3-0.2-0.6c0-0.3,0.1-0.5,0.4-0.7c0.1-0.1,0.4-0.1,0.8-0.1
		V6.4c-0.3,0-0.6-0.1-0.7-0.2s-0.2-0.3-0.2-0.6c0-0.2,0.1-0.4,0.2-0.6c0.2-0.1,0.4-0.2,0.8-0.2H192.3z"/>
	<path class="st4" d="M203,6.4v3.2c0,0.3,0.1,0.6,0.2,0.7c0.2,0.2,0.6,0.3,1.2,0.3c0.8,0,1.5-0.2,2.2-0.5c0.3-0.1,0.5-0.2,0.6-0.2
		c0.2,0,0.4,0.1,0.5,0.2s0.2,0.3,0.2,0.6c0,0.2-0.1,0.4-0.2,0.5c-0.3,0.2-0.7,0.5-1.5,0.7s-1.4,0.3-1.9,0.3c-1,0-1.7-0.2-2.2-0.6
		c-0.5-0.4-0.7-0.9-0.7-1.6V6.4h-0.6c-0.4,0-0.7-0.1-0.8-0.2c-0.2-0.1-0.2-0.3-0.2-0.6c0-0.2,0.1-0.4,0.2-0.6
		c0.2-0.1,0.4-0.2,0.8-0.2h0.6V3.4c0-0.4,0.1-0.7,0.2-0.8c0.1-0.2,0.3-0.2,0.6-0.2c0.2,0,0.4,0.1,0.6,0.2S203,3,203,3.4v1.4h2.9
		c0.4,0,0.7,0.1,0.8,0.2c0.2,0.1,0.2,0.3,0.2,0.6c0,0.2-0.1,0.4-0.2,0.6c-0.2,0.1-0.4,0.2-0.8,0.2H203z"/>
	<path class="st4" d="M216.8,9.1h-6.5c0.2,0.4,0.5,0.7,0.9,1s1,0.4,1.7,0.4c0.6,0,1.4-0.1,2.3-0.4c0.4-0.1,0.7-0.2,0.8-0.2
		c0.2,0,0.4,0.1,0.5,0.2s0.2,0.3,0.2,0.6c0,0.2-0.1,0.4-0.2,0.5c-0.2,0.2-0.7,0.4-1.5,0.5c-0.8,0.2-1.6,0.3-2.3,0.3
		c-1.3,0-2.3-0.4-3-1.1c-0.8-0.7-1.1-1.6-1.1-2.6c0-1.1,0.4-2,1.2-2.7s1.8-1,2.8-1c0.6,0,1.2,0.1,1.8,0.3s0.9,0.5,1.2,0.7
		c0.4,0.4,0.7,0.8,0.9,1.4c0.2,0.4,0.2,0.8,0.2,1.4V9.1z M215.1,7.5c-0.2-0.5-0.6-0.8-0.9-1s-0.9-0.3-1.4-0.3c-0.5,0-1,0.1-1.4,0.3
		s-0.7,0.6-1,1H215.1z"/>
	<path class="st4" d="M220.7,4.8v0.5c0.3-0.2,0.6-0.4,1-0.6c0.3-0.1,0.7-0.2,1.1-0.2c0.9,0,1.7,0.3,2.2,0.9c0.4,0.5,0.6,1.1,0.6,1.8
		v2.9c0.3,0,0.6,0.1,0.7,0.2c0.2,0.1,0.2,0.3,0.2,0.6c0,0.2-0.1,0.4-0.2,0.6c-0.2,0.1-0.4,0.2-0.8,0.2h-1.4c-0.4,0-0.7-0.1-0.8-0.2
		c-0.2-0.1-0.2-0.3-0.2-0.6c0-0.2,0.1-0.4,0.2-0.6c0.2-0.1,0.4-0.2,0.7-0.2v-3c0-0.3-0.1-0.6-0.3-0.8c-0.2-0.2-0.6-0.3-1.1-0.3
		c-0.4,0-0.7,0.1-1,0.2s-0.6,0.4-1,0.9v2.9c0.4,0,0.7,0,0.8,0.1c0.3,0.2,0.4,0.4,0.4,0.7c0,0.2-0.1,0.4-0.2,0.6
		c-0.2,0.1-0.4,0.2-0.8,0.2H219c-0.4,0-0.7-0.1-0.8-0.2c-0.2-0.1-0.2-0.3-0.2-0.6c0-0.3,0.1-0.5,0.4-0.7c0.1-0.1,0.4-0.1,0.8-0.1
		V6.4c-0.3,0-0.6-0.1-0.7-0.2s-0.2-0.3-0.2-0.6c0-0.2,0.1-0.4,0.2-0.6c0.2-0.1,0.4-0.2,0.8-0.2H220.7z"/>
	<path class="st4" d="M231.4,6.4v3.2c0,0.3,0.1,0.6,0.2,0.7c0.2,0.2,0.6,0.3,1.2,0.3c0.8,0,1.5-0.2,2.2-0.5c0.3-0.1,0.5-0.2,0.6-0.2
		c0.2,0,0.4,0.1,0.5,0.2s0.2,0.3,0.2,0.6c0,0.2-0.1,0.4-0.2,0.5c-0.3,0.2-0.7,0.5-1.5,0.7s-1.4,0.3-1.9,0.3c-1,0-1.7-0.2-2.2-0.6
		c-0.5-0.4-0.7-0.9-0.7-1.6V6.4h-0.6c-0.4,0-0.7-0.1-0.8-0.2c-0.2-0.1-0.2-0.3-0.2-0.6c0-0.2,0.1-0.4,0.2-0.6
		c0.2-0.1,0.4-0.2,0.8-0.2h0.6V3.4c0-0.4,0.1-0.7,0.2-0.8c0.1-0.2,0.3-0.2,0.6-0.2c0.2,0,0.4,0.1,0.6,0.2s0.2,0.4,0.2,0.8v1.4h2.9
		c0.4,0,0.7,0.1,0.8,0.2c0.2,0.1,0.2,0.3,0.2,0.6c0,0.2-0.1,0.4-0.2,0.6c-0.2,0.1-0.4,0.2-0.8,0.2H231.4z"/>
	<path class="st5" d="M242.4,5.9c0,0.3-0.1,0.5-0.3,0.7s-0.5,0.3-0.9,0.3c-0.4,0-0.7-0.1-0.9-0.3S240,6.2,240,5.9
		c0-0.3,0.1-0.5,0.3-0.7c0.2-0.2,0.5-0.3,0.9-0.3c0.4,0,0.7,0.1,0.9,0.3C242.3,5.3,242.4,5.6,242.4,5.9z M242.4,11
		c0,0.3-0.1,0.5-0.3,0.7c-0.2,0.2-0.5,0.3-0.9,0.3c-0.4,0-0.7-0.1-0.9-0.3c-0.2-0.2-0.3-0.4-0.3-0.7s0.1-0.5,0.3-0.7
		c0.2-0.2,0.5-0.3,0.9-0.3c0.4,0,0.7,0.1,0.9,0.3C242.3,10.5,242.4,10.7,242.4,11z"/>
	<path class="st6" d="M253.8,2.1l1.4,3.4c0,0.1,0.1,0.2,0.1,0.3c0,0.1-0.1,0.2-0.2,0.3s-0.2,0.1-0.4,0.1c-0.1,0-0.3-0.1-0.4-0.3
		l-2.4-3.8H253.8z M257.1,2.1l1.4,3.4c0,0.1,0.1,0.2,0.1,0.3c0,0.1,0,0.2-0.2,0.3c-0.1,0.1-0.2,0.1-0.3,0.1c-0.2,0-0.3-0.1-0.4-0.3
		l-2.4-3.8H257.1z"/>
	<path class="st6" d="M267.3,2.9c0.1-0.1,0.2-0.2,0.3-0.3c0.1-0.1,0.2-0.1,0.4-0.1c0.2,0,0.4,0.1,0.6,0.2c0.1,0.2,0.2,0.4,0.2,0.8
		v1.3c0,0.4-0.1,0.6-0.2,0.8c-0.1,0.2-0.3,0.2-0.6,0.2c-0.2,0-0.4-0.1-0.5-0.2c-0.1-0.1-0.2-0.3-0.3-0.7c0-0.2-0.1-0.4-0.2-0.5
		c-0.2-0.2-0.5-0.4-0.9-0.6c-0.4-0.1-0.8-0.2-1.1-0.2c-0.5,0-0.9,0.1-1.3,0.3c-0.4,0.2-0.7,0.5-1,1c-0.3,0.5-0.5,1-0.5,1.6v1
		c0,0.8,0.3,1.4,0.8,1.9c0.6,0.5,1.3,0.8,2.3,0.8c0.6,0,1.1-0.1,1.5-0.2c0.2-0.1,0.5-0.3,0.8-0.5c0.2-0.2,0.3-0.3,0.4-0.3
		c0.1,0,0.2-0.1,0.3-0.1c0.2,0,0.4,0.1,0.6,0.2s0.2,0.3,0.2,0.6c0,0.2-0.1,0.4-0.3,0.7c-0.3,0.4-0.7,0.6-1.2,0.8
		c-0.7,0.3-1.4,0.4-2.2,0.4c-0.9,0-1.8-0.2-2.5-0.6c-0.6-0.3-1.1-0.8-1.5-1.5s-0.6-1.4-0.6-2.2V6.8c0-0.8,0.2-1.6,0.6-2.3
		c0.4-0.7,0.9-1.3,1.6-1.6c0.7-0.4,1.4-0.6,2.2-0.6c0.5,0,0.9,0.1,1.3,0.2C266.6,2.5,267,2.7,267.3,2.9z"/>
	<path class="st6" d="M275.1,1.8v8.4h1.9c0.4,0,0.7,0.1,0.8,0.2c0.2,0.1,0.2,0.3,0.2,0.6c0,0.2-0.1,0.4-0.2,0.6
		c-0.2,0.1-0.4,0.2-0.8,0.2h-5.4c-0.4,0-0.7-0.1-0.8-0.2c-0.2-0.1-0.2-0.3-0.2-0.6c0-0.2,0.1-0.4,0.2-0.6c0.2-0.1,0.4-0.2,0.8-0.2
		h1.9V3.4h-1.3c-0.4,0-0.6-0.1-0.8-0.2c-0.2-0.1-0.2-0.3-0.2-0.6c0-0.2,0.1-0.4,0.2-0.6c0.2-0.1,0.4-0.2,0.8-0.2H275.1z"/>
	<path class="st6" d="M285.2,11.8v-0.4c-0.4,0.2-0.8,0.4-1.3,0.5c-0.5,0.1-0.9,0.2-1.3,0.2c-0.8,0-1.5-0.2-2.1-0.7
		c-0.5-0.4-0.8-0.9-0.8-1.5c0-0.7,0.3-1.3,1-1.8c0.7-0.6,1.6-0.9,2.8-0.9c0.5,0,1,0.1,1.7,0.2V7c0-0.2-0.1-0.4-0.3-0.6
		c-0.2-0.1-0.6-0.2-1.2-0.2c-0.5,0-1.1,0.1-1.8,0.3c-0.3,0.1-0.5,0.1-0.6,0.1c-0.2,0-0.4-0.1-0.5-0.2s-0.2-0.3-0.2-0.6
		c0-0.1,0-0.2,0.1-0.3c0.1-0.1,0.1-0.2,0.2-0.2c0.1-0.1,0.3-0.1,0.6-0.2c0.4-0.1,0.8-0.2,1.2-0.3c0.4-0.1,0.8-0.1,1.1-0.1
		c1,0,1.7,0.2,2.3,0.6c0.5,0.4,0.8,1,0.8,1.7v3.2h0.3c0.4,0,0.7,0.1,0.8,0.2c0.2,0.1,0.2,0.3,0.2,0.6c0,0.2-0.1,0.4-0.2,0.6
		c-0.2,0.1-0.4,0.2-0.8,0.2H285.2z M285.2,9c-0.6-0.1-1.2-0.2-1.7-0.2c-0.6,0-1.2,0.2-1.7,0.5c-0.3,0.2-0.4,0.4-0.4,0.6
		c0,0.1,0.1,0.3,0.2,0.4c0.3,0.2,0.6,0.3,1.1,0.3c0.4,0,0.8-0.1,1.3-0.2c0.5-0.1,0.9-0.4,1.3-0.6V9z"/>
	<path class="st6" d="M292.9,4.8v1c0.7-0.5,1.2-0.8,1.6-1c0.4-0.2,0.7-0.2,1.1-0.2c0.5,0,1,0.2,1.5,0.6c0.3,0.3,0.5,0.5,0.5,0.8
		c0,0.2-0.1,0.4-0.2,0.6c-0.2,0.2-0.3,0.2-0.6,0.2c-0.2,0-0.4-0.1-0.6-0.3c-0.2-0.2-0.4-0.3-0.6-0.3c-0.2,0-0.6,0.1-1,0.4
		c-0.4,0.3-1,0.7-1.6,1.2v2.4h2.2c0.4,0,0.7,0.1,0.8,0.2c0.2,0.1,0.2,0.3,0.2,0.6c0,0.2-0.1,0.4-0.2,0.6c-0.2,0.1-0.4,0.2-0.8,0.2
		h-4.8c-0.4,0-0.7-0.1-0.8-0.2c-0.2-0.1-0.2-0.3-0.2-0.6c0-0.2,0.1-0.4,0.2-0.6c0.2-0.1,0.4-0.2,0.8-0.2h0.9V6.4h-0.6
		c-0.4,0-0.7-0.1-0.8-0.2c-0.2-0.1-0.2-0.3-0.2-0.6c0-0.2,0.1-0.4,0.2-0.6c0.2-0.1,0.4-0.2,0.8-0.2H292.9z"/>
	<path class="st6" d="M301.4,9.2v2.6h-1.8c-0.4,0-0.7-0.1-0.8-0.2c-0.2-0.1-0.2-0.3-0.2-0.6c0-0.2,0.1-0.4,0.2-0.6
		c0.2-0.1,0.4-0.2,0.8-0.2h0.3V3.4h-0.3c-0.4,0-0.7-0.1-0.8-0.2c-0.2-0.1-0.2-0.3-0.2-0.6c0-0.2,0.1-0.4,0.2-0.6
		c0.2-0.1,0.4-0.2,0.8-0.2h1.8v5.3l1.2-1c-0.1-0.2-0.2-0.4-0.2-0.5c0-0.2,0.1-0.4,0.2-0.6c0.2-0.1,0.4-0.2,0.8-0.2h1.8
		c0.4,0,0.7,0.1,0.8,0.2c0.2,0.1,0.2,0.3,0.2,0.6c0,0.2-0.1,0.4-0.2,0.6c-0.2,0.1-0.4,0.2-0.8,0.2h-0.4L302.9,8l2.6,2.3h0.5
		c0.4,0,0.7,0.1,0.8,0.2c0.2,0.1,0.2,0.3,0.2,0.6c0,0.2-0.1,0.4-0.2,0.6c-0.2,0.1-0.4,0.2-0.8,0.2h-1.8c-0.4,0-0.7-0.1-0.8-0.2
		c-0.2-0.1-0.2-0.3-0.2-0.6c0-0.2,0.1-0.4,0.3-0.6l-1.7-1.5L301.4,9.2z"/>
	<path class="st6" d="M315.2,2.1h1.9l-2.4,3.8c-0.1,0.2-0.3,0.3-0.4,0.3c-0.1,0-0.3,0-0.4-0.1s-0.2-0.2-0.2-0.3c0-0.1,0-0.2,0.1-0.3
		L315.2,2.1z M318.5,2.1h1.9L318,5.9c-0.1,0.2-0.3,0.3-0.4,0.3c-0.1,0-0.3,0-0.4-0.1s-0.2-0.2-0.2-0.3c0-0.1,0-0.2,0.1-0.3
		L318.5,2.1z"/>
	<path class="st3" d="M325.8,9.5h2l-2.2,3.6c-0.1,0.2-0.3,0.4-0.4,0.4c-0.1,0-0.2,0-0.3-0.1c-0.1-0.1-0.1-0.2-0.1-0.2
		c0-0.1,0-0.2,0.1-0.3L325.8,9.5z M328.3,5.9c0,0.3-0.1,0.5-0.3,0.7c-0.2,0.2-0.5,0.3-0.9,0.3c-0.4,0-0.7-0.1-0.9-0.3
		c-0.2-0.2-0.3-0.5-0.3-0.8c0-0.3,0.1-0.5,0.3-0.7c0.2-0.2,0.5-0.3,0.9-0.3s0.7,0.1,0.9,0.3C328.2,5.4,328.3,5.6,328.3,5.9z"/>
	<path class="st3" d="M335.4,8c-0.2-0.2-0.3-0.4-0.4-0.6C335,7.2,335,6.9,335,6.6V4.1c0-0.2,0-0.4-0.1-0.5c-0.1-0.1-0.2-0.1-0.4-0.2
		c-0.2,0-0.4-0.1-0.5-0.3c-0.1-0.1-0.2-0.3-0.2-0.5c0-0.2,0.1-0.4,0.2-0.6s0.4-0.2,0.6-0.2c0.3,0,0.7,0.1,1,0.3
		c0.3,0.2,0.6,0.5,0.8,0.9c0.1,0.3,0.2,0.6,0.2,0.9v2.6c0,0.2,0,0.4,0.1,0.5c0.1,0.1,0.2,0.1,0.5,0.2c0.2,0,0.4,0.1,0.5,0.2
		c0.1,0.1,0.2,0.3,0.2,0.6c0,0.2-0.1,0.4-0.2,0.5c-0.1,0.1-0.3,0.2-0.5,0.2c-0.2,0-0.4,0.1-0.4,0.1c-0.1,0.1-0.1,0.3-0.1,0.5v2.8
		c0,0.6-0.2,1.1-0.6,1.5c-0.4,0.4-0.9,0.6-1.4,0.6c-0.2,0-0.4-0.1-0.6-0.2c-0.2-0.2-0.2-0.3-0.2-0.6c0-0.2,0.1-0.4,0.2-0.5
		c0.1-0.1,0.3-0.2,0.5-0.3s0.4-0.1,0.4-0.1c0.1-0.1,0.1-0.3,0.1-0.5V9.6c0-0.4,0-0.8,0.1-1C335.1,8.4,335.3,8.2,335.4,8z"/>
</g>
</svg>
