<?xml version="1.0" encoding="UTF-8"?>
<svg width="32px" height="32px" viewBox="0 0 32 32" version="1.1" xmlns="http://www.w3.org/2000/svg" xmlns:xlink="http://www.w3.org/1999/xlink">
    <!-- Generator: Sketch 55.2 (78181) - https://sketchapp.com -->
    <title>Fill 33</title>
    <desc>Created with Sketch.</desc>
    <g id="Page-1" stroke="none" stroke-width="1" fill="none" fill-rule="evenodd">
        <g id="Group" transform="translate(-157.000000, -52.000000)" fill="#313638">
            <path d="M184.2687,79.2674 L179.5227,79.2674 L179.5227,71.8414 C179.5227,70.0704 179.4927,67.7924 177.0567,67.7924 C174.5877,67.7924 174.2107,69.7224 174.2107,71.7144 L174.2107,79.2674 L169.4697,79.2674 L169.4697,63.9964 L174.0197,63.9964 L174.0197,66.0844 L174.0847,66.0844 C174.7177,64.8834 176.2657,63.6174 178.5747,63.6174 C183.3807,63.6174 184.2687,66.7794 184.2687,70.8924 L184.2687,79.2674 Z M164.1187,61.9104 C162.5937,61.9104 161.3647,60.6774 161.3647,59.1574 C161.3647,57.6384 162.5937,56.4054 164.1187,56.4054 C165.6367,56.4054 166.8697,57.6384 166.8697,59.1574 C166.8697,60.6774 165.6367,61.9104 164.1187,61.9104 L164.1187,61.9104 Z M166.4927,79.2674 L161.7417,79.2674 L161.7417,63.9964 L166.4927,63.9964 L166.4927,79.2674 Z M187.6667,52.0004 L158.3337,52.0004 C157.5967,52.0004 156.9997,52.5974 156.9997,53.3334 L156.9997,82.6664 C156.9997,83.4034 157.5967,84.0004 158.3337,84.0004 L187.6667,84.0004 C188.4027,84.0004 188.9997,83.4034 188.9997,82.6664 L188.9997,53.3334 C188.9997,52.5974 188.4027,52.0004 187.6667,52.0004 L187.6667,52.0004 Z" id="Fill-33"></path>
        </g>
    </g>
</svg>